G04 #@! TF.GenerationSoftware,KiCad,Pcbnew,5.0.1*
G04 #@! TF.CreationDate,2019-02-10T14:23:21-05:00*
G04 #@! TF.ProjectId,12V-SmartSwitch_2panel,3132562D536D6172745377697463685F,rev?*
G04 #@! TF.SameCoordinates,Original*
G04 #@! TF.FileFunction,Legend,Bot*
G04 #@! TF.FilePolarity,Positive*
%FSLAX46Y46*%
G04 Gerber Fmt 4.6, Leading zero omitted, Abs format (unit mm)*
G04 Created by KiCad (PCBNEW 5.0.1) date Sun 10 Feb 2019 02:23:21 PM EST*
%MOMM*%
%LPD*%
G01*
G04 APERTURE LIST*
%ADD10C,0.300000*%
%ADD11C,0.200000*%
G04 APERTURE END LIST*
D10*
X187162142Y-37103571D02*
X186662142Y-38603571D01*
X186162142Y-37103571D01*
X185662142Y-38603571D02*
X185662142Y-37603571D01*
X185662142Y-37103571D02*
X185733571Y-37175000D01*
X185662142Y-37246428D01*
X185590714Y-37175000D01*
X185662142Y-37103571D01*
X185662142Y-37246428D01*
X184947857Y-37603571D02*
X184947857Y-38603571D01*
X184947857Y-37746428D02*
X184876428Y-37675000D01*
X184733571Y-37603571D01*
X184519285Y-37603571D01*
X184376428Y-37675000D01*
X184305000Y-37817857D01*
X184305000Y-38603571D01*
X183805000Y-37603571D02*
X183233571Y-37603571D01*
X183590714Y-37103571D02*
X183590714Y-38389285D01*
X183519285Y-38532142D01*
X183376428Y-38603571D01*
X183233571Y-38603571D01*
X182019285Y-38603571D02*
X182733571Y-38603571D01*
X182733571Y-37103571D01*
X180876428Y-38603571D02*
X180876428Y-37817857D01*
X180947857Y-37675000D01*
X181090714Y-37603571D01*
X181376428Y-37603571D01*
X181519285Y-37675000D01*
X180876428Y-38532142D02*
X181019285Y-38603571D01*
X181376428Y-38603571D01*
X181519285Y-38532142D01*
X181590714Y-38389285D01*
X181590714Y-38246428D01*
X181519285Y-38103571D01*
X181376428Y-38032142D01*
X181019285Y-38032142D01*
X180876428Y-37960714D01*
X180162142Y-38603571D02*
X180162142Y-37103571D01*
X180162142Y-37675000D02*
X180019285Y-37603571D01*
X179733571Y-37603571D01*
X179590714Y-37675000D01*
X179519285Y-37746428D01*
X179447857Y-37889285D01*
X179447857Y-38317857D01*
X179519285Y-38460714D01*
X179590714Y-38532142D01*
X179733571Y-38603571D01*
X180019285Y-38603571D01*
X180162142Y-38532142D01*
X178876428Y-38532142D02*
X178733571Y-38603571D01*
X178447857Y-38603571D01*
X178305000Y-38532142D01*
X178233571Y-38389285D01*
X178233571Y-38317857D01*
X178305000Y-38175000D01*
X178447857Y-38103571D01*
X178662142Y-38103571D01*
X178805000Y-38032142D01*
X178876428Y-37889285D01*
X178876428Y-37817857D01*
X178805000Y-37675000D01*
X178662142Y-37603571D01*
X178447857Y-37603571D01*
X178305000Y-37675000D01*
X176447857Y-37817857D02*
X175947857Y-37817857D01*
X175733571Y-38603571D02*
X176447857Y-38603571D01*
X176447857Y-37103571D01*
X175733571Y-37103571D01*
X175162142Y-38532142D02*
X174947857Y-38603571D01*
X174590714Y-38603571D01*
X174447857Y-38532142D01*
X174376428Y-38460714D01*
X174305000Y-38317857D01*
X174305000Y-38175000D01*
X174376428Y-38032142D01*
X174447857Y-37960714D01*
X174590714Y-37889285D01*
X174876428Y-37817857D01*
X175019285Y-37746428D01*
X175090714Y-37675000D01*
X175162142Y-37532142D01*
X175162142Y-37389285D01*
X175090714Y-37246428D01*
X175019285Y-37175000D01*
X174876428Y-37103571D01*
X174519285Y-37103571D01*
X174305000Y-37175000D01*
X173662142Y-38603571D02*
X173662142Y-37103571D01*
X173090714Y-37103571D01*
X172947857Y-37175000D01*
X172876428Y-37246428D01*
X172805000Y-37389285D01*
X172805000Y-37603571D01*
X172876428Y-37746428D01*
X172947857Y-37817857D01*
X173090714Y-37889285D01*
X173662142Y-37889285D01*
X172305000Y-37103571D02*
X171376428Y-37103571D01*
X171876428Y-37675000D01*
X171662142Y-37675000D01*
X171519285Y-37746428D01*
X171447857Y-37817857D01*
X171376428Y-37960714D01*
X171376428Y-38317857D01*
X171447857Y-38460714D01*
X171519285Y-38532142D01*
X171662142Y-38603571D01*
X172090714Y-38603571D01*
X172233571Y-38532142D01*
X172305000Y-38460714D01*
X170805000Y-37246428D02*
X170733571Y-37175000D01*
X170590714Y-37103571D01*
X170233571Y-37103571D01*
X170090714Y-37175000D01*
X170019285Y-37246428D01*
X169947857Y-37389285D01*
X169947857Y-37532142D01*
X170019285Y-37746428D01*
X170876428Y-38603571D01*
X169947857Y-38603571D01*
X168305000Y-37103571D02*
X167947857Y-38603571D01*
X167662142Y-37532142D01*
X167376428Y-38603571D01*
X167019285Y-37103571D01*
X165590714Y-38603571D02*
X166090714Y-37889285D01*
X166447857Y-38603571D02*
X166447857Y-37103571D01*
X165876428Y-37103571D01*
X165733571Y-37175000D01*
X165662142Y-37246428D01*
X165590714Y-37389285D01*
X165590714Y-37603571D01*
X165662142Y-37746428D01*
X165733571Y-37817857D01*
X165876428Y-37889285D01*
X166447857Y-37889285D01*
X164662142Y-37103571D02*
X164376428Y-37103571D01*
X164233571Y-37175000D01*
X164090714Y-37317857D01*
X164019285Y-37603571D01*
X164019285Y-38103571D01*
X164090714Y-38389285D01*
X164233571Y-38532142D01*
X164376428Y-38603571D01*
X164662142Y-38603571D01*
X164805000Y-38532142D01*
X164947857Y-38389285D01*
X165019285Y-38103571D01*
X165019285Y-37603571D01*
X164947857Y-37317857D01*
X164805000Y-37175000D01*
X164662142Y-37103571D01*
X163090714Y-37103571D02*
X162805000Y-37103571D01*
X162662142Y-37175000D01*
X162519285Y-37317857D01*
X162447857Y-37603571D01*
X162447857Y-38103571D01*
X162519285Y-38389285D01*
X162662142Y-38532142D01*
X162805000Y-38603571D01*
X163090714Y-38603571D01*
X163233571Y-38532142D01*
X163376428Y-38389285D01*
X163447857Y-38103571D01*
X163447857Y-37603571D01*
X163376428Y-37317857D01*
X163233571Y-37175000D01*
X163090714Y-37103571D01*
X161805000Y-38603571D02*
X161805000Y-37103571D01*
X161305000Y-38175000D01*
X160805000Y-37103571D01*
X160805000Y-38603571D01*
X158947857Y-38603571D02*
X158947857Y-37103571D01*
X158590714Y-37103571D01*
X158376428Y-37175000D01*
X158233571Y-37317857D01*
X158162142Y-37460714D01*
X158090714Y-37746428D01*
X158090714Y-37960714D01*
X158162142Y-38246428D01*
X158233571Y-38389285D01*
X158376428Y-38532142D01*
X158590714Y-38603571D01*
X158947857Y-38603571D01*
X156876428Y-38532142D02*
X157019285Y-38603571D01*
X157305000Y-38603571D01*
X157447857Y-38532142D01*
X157519285Y-38389285D01*
X157519285Y-37817857D01*
X157447857Y-37675000D01*
X157305000Y-37603571D01*
X157019285Y-37603571D01*
X156876428Y-37675000D01*
X156805000Y-37817857D01*
X156805000Y-37960714D01*
X157519285Y-38103571D01*
X156305000Y-37603571D02*
X155947857Y-38603571D01*
X155590714Y-37603571D01*
X153876428Y-38603571D02*
X153876428Y-37103571D01*
X153376428Y-38175000D01*
X152876428Y-37103571D01*
X152876428Y-38603571D01*
X151947857Y-38603571D02*
X152090714Y-38532142D01*
X152162142Y-38460714D01*
X152233571Y-38317857D01*
X152233571Y-37889285D01*
X152162142Y-37746428D01*
X152090714Y-37675000D01*
X151947857Y-37603571D01*
X151733571Y-37603571D01*
X151590714Y-37675000D01*
X151519285Y-37746428D01*
X151447857Y-37889285D01*
X151447857Y-38317857D01*
X151519285Y-38460714D01*
X151590714Y-38532142D01*
X151733571Y-38603571D01*
X151947857Y-38603571D01*
X150162142Y-38603571D02*
X150162142Y-37103571D01*
X150162142Y-38532142D02*
X150305000Y-38603571D01*
X150590714Y-38603571D01*
X150733571Y-38532142D01*
X150805000Y-38460714D01*
X150876428Y-38317857D01*
X150876428Y-37889285D01*
X150805000Y-37746428D01*
X150733571Y-37675000D01*
X150590714Y-37603571D01*
X150305000Y-37603571D01*
X150162142Y-37675000D01*
X148805000Y-37603571D02*
X148805000Y-38603571D01*
X149447857Y-37603571D02*
X149447857Y-38389285D01*
X149376428Y-38532142D01*
X149233571Y-38603571D01*
X149019285Y-38603571D01*
X148876428Y-38532142D01*
X148805000Y-38460714D01*
X147876428Y-38603571D02*
X148019285Y-38532142D01*
X148090714Y-38389285D01*
X148090714Y-37103571D01*
X146733571Y-38532142D02*
X146876428Y-38603571D01*
X147162142Y-38603571D01*
X147305000Y-38532142D01*
X147376428Y-38389285D01*
X147376428Y-37817857D01*
X147305000Y-37675000D01*
X147162142Y-37603571D01*
X146876428Y-37603571D01*
X146733571Y-37675000D01*
X146662142Y-37817857D01*
X146662142Y-37960714D01*
X147376428Y-38103571D01*
X187090714Y-39653571D02*
X186733571Y-41153571D01*
X186447857Y-40082142D01*
X186162142Y-41153571D01*
X185805000Y-39653571D01*
X185233571Y-41153571D02*
X185233571Y-40153571D01*
X185233571Y-39653571D02*
X185305000Y-39725000D01*
X185233571Y-39796428D01*
X185162142Y-39725000D01*
X185233571Y-39653571D01*
X185233571Y-39796428D01*
X184019285Y-40367857D02*
X184519285Y-40367857D01*
X184519285Y-41153571D02*
X184519285Y-39653571D01*
X183805000Y-39653571D01*
X183233571Y-41153571D02*
X183233571Y-40153571D01*
X183233571Y-39653571D02*
X183305000Y-39725000D01*
X183233571Y-39796428D01*
X183162142Y-39725000D01*
X183233571Y-39653571D01*
X183233571Y-39796428D01*
X182447857Y-41082142D02*
X182447857Y-41153571D01*
X182519285Y-41296428D01*
X182590714Y-41367857D01*
X180162142Y-40367857D02*
X179947857Y-40439285D01*
X179876428Y-40510714D01*
X179805000Y-40653571D01*
X179805000Y-40867857D01*
X179876428Y-41010714D01*
X179947857Y-41082142D01*
X180090714Y-41153571D01*
X180662142Y-41153571D01*
X180662142Y-39653571D01*
X180162142Y-39653571D01*
X180019285Y-39725000D01*
X179947857Y-39796428D01*
X179876428Y-39939285D01*
X179876428Y-40082142D01*
X179947857Y-40225000D01*
X180019285Y-40296428D01*
X180162142Y-40367857D01*
X180662142Y-40367857D01*
X178947857Y-41153571D02*
X179090714Y-41082142D01*
X179162142Y-40939285D01*
X179162142Y-39653571D01*
X177733571Y-40153571D02*
X177733571Y-41153571D01*
X178376428Y-40153571D02*
X178376428Y-40939285D01*
X178305000Y-41082142D01*
X178162142Y-41153571D01*
X177947857Y-41153571D01*
X177805000Y-41082142D01*
X177733571Y-41010714D01*
X176447857Y-41082142D02*
X176590714Y-41153571D01*
X176876428Y-41153571D01*
X177019285Y-41082142D01*
X177090714Y-40939285D01*
X177090714Y-40367857D01*
X177019285Y-40225000D01*
X176876428Y-40153571D01*
X176590714Y-40153571D01*
X176447857Y-40225000D01*
X176376428Y-40367857D01*
X176376428Y-40510714D01*
X177090714Y-40653571D01*
X175947857Y-40153571D02*
X175376428Y-40153571D01*
X175733571Y-39653571D02*
X175733571Y-40939285D01*
X175662142Y-41082142D01*
X175519285Y-41153571D01*
X175376428Y-41153571D01*
X174662142Y-41153571D02*
X174805000Y-41082142D01*
X174876428Y-41010714D01*
X174947857Y-40867857D01*
X174947857Y-40439285D01*
X174876428Y-40296428D01*
X174805000Y-40225000D01*
X174662142Y-40153571D01*
X174447857Y-40153571D01*
X174305000Y-40225000D01*
X174233571Y-40296428D01*
X174162142Y-40439285D01*
X174162142Y-40867857D01*
X174233571Y-41010714D01*
X174305000Y-41082142D01*
X174447857Y-41153571D01*
X174662142Y-41153571D01*
X173305000Y-41153571D02*
X173447857Y-41082142D01*
X173519285Y-41010714D01*
X173590714Y-40867857D01*
X173590714Y-40439285D01*
X173519285Y-40296428D01*
X173447857Y-40225000D01*
X173305000Y-40153571D01*
X173090714Y-40153571D01*
X172947857Y-40225000D01*
X172876428Y-40296428D01*
X172805000Y-40439285D01*
X172805000Y-40867857D01*
X172876428Y-41010714D01*
X172947857Y-41082142D01*
X173090714Y-41153571D01*
X173305000Y-41153571D01*
X172376428Y-40153571D02*
X171805000Y-40153571D01*
X172162142Y-39653571D02*
X172162142Y-40939285D01*
X172090714Y-41082142D01*
X171947857Y-41153571D01*
X171805000Y-41153571D01*
X171305000Y-41153571D02*
X171305000Y-39653571D01*
X170662142Y-41153571D02*
X170662142Y-40367857D01*
X170733571Y-40225000D01*
X170876428Y-40153571D01*
X171090714Y-40153571D01*
X171233571Y-40225000D01*
X171305000Y-40296428D01*
X168162142Y-41153571D02*
X168162142Y-40367857D01*
X168233571Y-40225000D01*
X168376428Y-40153571D01*
X168662142Y-40153571D01*
X168805000Y-40225000D01*
X168162142Y-41082142D02*
X168305000Y-41153571D01*
X168662142Y-41153571D01*
X168805000Y-41082142D01*
X168876428Y-40939285D01*
X168876428Y-40796428D01*
X168805000Y-40653571D01*
X168662142Y-40582142D01*
X168305000Y-40582142D01*
X168162142Y-40510714D01*
X167447857Y-40153571D02*
X167447857Y-41153571D01*
X167447857Y-40296428D02*
X167376428Y-40225000D01*
X167233571Y-40153571D01*
X167019285Y-40153571D01*
X166876428Y-40225000D01*
X166805000Y-40367857D01*
X166805000Y-41153571D01*
X165447857Y-41153571D02*
X165447857Y-39653571D01*
X165447857Y-41082142D02*
X165590714Y-41153571D01*
X165876428Y-41153571D01*
X166019285Y-41082142D01*
X166090714Y-41010714D01*
X166162142Y-40867857D01*
X166162142Y-40439285D01*
X166090714Y-40296428D01*
X166019285Y-40225000D01*
X165876428Y-40153571D01*
X165590714Y-40153571D01*
X165447857Y-40225000D01*
X163376428Y-40296428D02*
X163519285Y-40225000D01*
X163590714Y-40153571D01*
X163662142Y-40010714D01*
X163662142Y-39939285D01*
X163590714Y-39796428D01*
X163519285Y-39725000D01*
X163376428Y-39653571D01*
X163090714Y-39653571D01*
X162947857Y-39725000D01*
X162876428Y-39796428D01*
X162805000Y-39939285D01*
X162805000Y-40010714D01*
X162876428Y-40153571D01*
X162947857Y-40225000D01*
X163090714Y-40296428D01*
X163376428Y-40296428D01*
X163519285Y-40367857D01*
X163590714Y-40439285D01*
X163662142Y-40582142D01*
X163662142Y-40867857D01*
X163590714Y-41010714D01*
X163519285Y-41082142D01*
X163376428Y-41153571D01*
X163090714Y-41153571D01*
X162947857Y-41082142D01*
X162876428Y-41010714D01*
X162805000Y-40867857D01*
X162805000Y-40582142D01*
X162876428Y-40439285D01*
X162947857Y-40367857D01*
X163090714Y-40296428D01*
X161090714Y-39796428D02*
X161019285Y-39725000D01*
X160876428Y-39653571D01*
X160519285Y-39653571D01*
X160376428Y-39725000D01*
X160305000Y-39796428D01*
X160233571Y-39939285D01*
X160233571Y-40082142D01*
X160305000Y-40296428D01*
X161162142Y-41153571D01*
X160233571Y-41153571D01*
X159662142Y-40725000D02*
X158947857Y-40725000D01*
X159805000Y-41153571D02*
X159305000Y-39653571D01*
X158805000Y-41153571D01*
X157162142Y-41153571D02*
X157162142Y-39653571D01*
X156590714Y-39653571D01*
X156447857Y-39725000D01*
X156376428Y-39796428D01*
X156305000Y-39939285D01*
X156305000Y-40153571D01*
X156376428Y-40296428D01*
X156447857Y-40367857D01*
X156590714Y-40439285D01*
X157162142Y-40439285D01*
X155805000Y-39653571D02*
X155447857Y-41153571D01*
X155162142Y-40082142D01*
X154876428Y-41153571D01*
X154519285Y-39653571D01*
X153947857Y-41153571D02*
X153947857Y-39653571D01*
X153447857Y-40725000D01*
X152947857Y-39653571D01*
X152947857Y-41153571D01*
X150805000Y-39653571D02*
X150519285Y-39653571D01*
X150376428Y-39725000D01*
X150233571Y-39867857D01*
X150162142Y-40153571D01*
X150162142Y-40653571D01*
X150233571Y-40939285D01*
X150376428Y-41082142D01*
X150519285Y-41153571D01*
X150805000Y-41153571D01*
X150947857Y-41082142D01*
X151090714Y-40939285D01*
X151162142Y-40653571D01*
X151162142Y-40153571D01*
X151090714Y-39867857D01*
X150947857Y-39725000D01*
X150805000Y-39653571D01*
X148876428Y-40153571D02*
X148876428Y-41153571D01*
X149519285Y-40153571D02*
X149519285Y-40939285D01*
X149447857Y-41082142D01*
X149305000Y-41153571D01*
X149090714Y-41153571D01*
X148947857Y-41082142D01*
X148876428Y-41010714D01*
X148376428Y-40153571D02*
X147805000Y-40153571D01*
X148162142Y-39653571D02*
X148162142Y-40939285D01*
X148090714Y-41082142D01*
X147947857Y-41153571D01*
X147805000Y-41153571D01*
X147305000Y-40153571D02*
X147305000Y-41653571D01*
X147305000Y-40225000D02*
X147162142Y-40153571D01*
X146876428Y-40153571D01*
X146733571Y-40225000D01*
X146662142Y-40296428D01*
X146590714Y-40439285D01*
X146590714Y-40867857D01*
X146662142Y-41010714D01*
X146733571Y-41082142D01*
X146876428Y-41153571D01*
X147162142Y-41153571D01*
X147305000Y-41082142D01*
X145305000Y-40153571D02*
X145305000Y-41153571D01*
X145947857Y-40153571D02*
X145947857Y-40939285D01*
X145876428Y-41082142D01*
X145733571Y-41153571D01*
X145519285Y-41153571D01*
X145376428Y-41082142D01*
X145305000Y-41010714D01*
X144805000Y-40153571D02*
X144233571Y-40153571D01*
X144590714Y-39653571D02*
X144590714Y-40939285D01*
X144519285Y-41082142D01*
X144376428Y-41153571D01*
X144233571Y-41153571D01*
X143805000Y-41082142D02*
X143662142Y-41153571D01*
X143376428Y-41153571D01*
X143233571Y-41082142D01*
X143162142Y-40939285D01*
X143162142Y-40867857D01*
X143233571Y-40725000D01*
X143376428Y-40653571D01*
X143590714Y-40653571D01*
X143733571Y-40582142D01*
X143805000Y-40439285D01*
X143805000Y-40367857D01*
X143733571Y-40225000D01*
X143590714Y-40153571D01*
X143376428Y-40153571D01*
X143233571Y-40225000D01*
X187019285Y-43632142D02*
X186805000Y-43703571D01*
X186447857Y-43703571D01*
X186305000Y-43632142D01*
X186233571Y-43560714D01*
X186162142Y-43417857D01*
X186162142Y-43275000D01*
X186233571Y-43132142D01*
X186305000Y-43060714D01*
X186447857Y-42989285D01*
X186733571Y-42917857D01*
X186876428Y-42846428D01*
X186947857Y-42775000D01*
X187019285Y-42632142D01*
X187019285Y-42489285D01*
X186947857Y-42346428D01*
X186876428Y-42275000D01*
X186733571Y-42203571D01*
X186376428Y-42203571D01*
X186162142Y-42275000D01*
X184947857Y-43632142D02*
X185090714Y-43703571D01*
X185376428Y-43703571D01*
X185519285Y-43632142D01*
X185590714Y-43489285D01*
X185590714Y-42917857D01*
X185519285Y-42775000D01*
X185376428Y-42703571D01*
X185090714Y-42703571D01*
X184947857Y-42775000D01*
X184876428Y-42917857D01*
X184876428Y-43060714D01*
X185590714Y-43203571D01*
X183662142Y-43632142D02*
X183805000Y-43703571D01*
X184090714Y-43703571D01*
X184233571Y-43632142D01*
X184305000Y-43489285D01*
X184305000Y-42917857D01*
X184233571Y-42775000D01*
X184090714Y-42703571D01*
X183805000Y-42703571D01*
X183662142Y-42775000D01*
X183590714Y-42917857D01*
X183590714Y-43060714D01*
X184305000Y-43203571D01*
X181805000Y-43703571D02*
X181805000Y-42203571D01*
X181162142Y-43703571D02*
X181162142Y-42917857D01*
X181233571Y-42775000D01*
X181376428Y-42703571D01*
X181590714Y-42703571D01*
X181733571Y-42775000D01*
X181805000Y-42846428D01*
X180662142Y-42703571D02*
X180090714Y-42703571D01*
X180447857Y-42203571D02*
X180447857Y-43489285D01*
X180376428Y-43632142D01*
X180233571Y-43703571D01*
X180090714Y-43703571D01*
X179805000Y-42703571D02*
X179233571Y-42703571D01*
X179590714Y-42203571D02*
X179590714Y-43489285D01*
X179519285Y-43632142D01*
X179376428Y-43703571D01*
X179233571Y-43703571D01*
X178733571Y-42703571D02*
X178733571Y-44203571D01*
X178733571Y-42775000D02*
X178590714Y-42703571D01*
X178305000Y-42703571D01*
X178162142Y-42775000D01*
X178090714Y-42846428D01*
X178019285Y-42989285D01*
X178019285Y-43417857D01*
X178090714Y-43560714D01*
X178162142Y-43632142D01*
X178305000Y-43703571D01*
X178590714Y-43703571D01*
X178733571Y-43632142D01*
X177376428Y-43560714D02*
X177305000Y-43632142D01*
X177376428Y-43703571D01*
X177447857Y-43632142D01*
X177376428Y-43560714D01*
X177376428Y-43703571D01*
X177376428Y-42775000D02*
X177305000Y-42846428D01*
X177376428Y-42917857D01*
X177447857Y-42846428D01*
X177376428Y-42775000D01*
X177376428Y-42917857D01*
X175590714Y-42132142D02*
X176876428Y-44060714D01*
X174019285Y-42132142D02*
X175305000Y-44060714D01*
X173662142Y-42703571D02*
X173305000Y-43703571D01*
X172947857Y-42703571D01*
X172376428Y-43703571D02*
X172376428Y-42703571D01*
X172376428Y-42203571D02*
X172447857Y-42275000D01*
X172376428Y-42346428D01*
X172305000Y-42275000D01*
X172376428Y-42203571D01*
X172376428Y-42346428D01*
X171662142Y-42703571D02*
X171662142Y-43703571D01*
X171662142Y-42846428D02*
X171590714Y-42775000D01*
X171447857Y-42703571D01*
X171233571Y-42703571D01*
X171090714Y-42775000D01*
X171019285Y-42917857D01*
X171019285Y-43703571D01*
X170519285Y-42703571D02*
X169947857Y-42703571D01*
X170305000Y-42203571D02*
X170305000Y-43489285D01*
X170233571Y-43632142D01*
X170090714Y-43703571D01*
X169947857Y-43703571D01*
X169233571Y-43703571D02*
X169376428Y-43632142D01*
X169447857Y-43489285D01*
X169447857Y-42203571D01*
X168019285Y-43703571D02*
X168019285Y-42917857D01*
X168090714Y-42775000D01*
X168233571Y-42703571D01*
X168519285Y-42703571D01*
X168662142Y-42775000D01*
X168019285Y-43632142D02*
X168162142Y-43703571D01*
X168519285Y-43703571D01*
X168662142Y-43632142D01*
X168733571Y-43489285D01*
X168733571Y-43346428D01*
X168662142Y-43203571D01*
X168519285Y-43132142D01*
X168162142Y-43132142D01*
X168019285Y-43060714D01*
X167305000Y-43703571D02*
X167305000Y-42203571D01*
X167305000Y-42775000D02*
X167162142Y-42703571D01*
X166876428Y-42703571D01*
X166733571Y-42775000D01*
X166662142Y-42846428D01*
X166590714Y-42989285D01*
X166590714Y-43417857D01*
X166662142Y-43560714D01*
X166733571Y-43632142D01*
X166876428Y-43703571D01*
X167162142Y-43703571D01*
X167305000Y-43632142D01*
X166019285Y-43632142D02*
X165876428Y-43703571D01*
X165590714Y-43703571D01*
X165447857Y-43632142D01*
X165376428Y-43489285D01*
X165376428Y-43417857D01*
X165447857Y-43275000D01*
X165590714Y-43203571D01*
X165805000Y-43203571D01*
X165947857Y-43132142D01*
X166019285Y-42989285D01*
X166019285Y-42917857D01*
X165947857Y-42775000D01*
X165805000Y-42703571D01*
X165590714Y-42703571D01*
X165447857Y-42775000D01*
X164733571Y-43560714D02*
X164662142Y-43632142D01*
X164733571Y-43703571D01*
X164805000Y-43632142D01*
X164733571Y-43560714D01*
X164733571Y-43703571D01*
X163376428Y-43632142D02*
X163519285Y-43703571D01*
X163805000Y-43703571D01*
X163947857Y-43632142D01*
X164019285Y-43560714D01*
X164090714Y-43417857D01*
X164090714Y-42989285D01*
X164019285Y-42846428D01*
X163947857Y-42775000D01*
X163805000Y-42703571D01*
X163519285Y-42703571D01*
X163376428Y-42775000D01*
X162519285Y-43703571D02*
X162662142Y-43632142D01*
X162733571Y-43560714D01*
X162805000Y-43417857D01*
X162805000Y-42989285D01*
X162733571Y-42846428D01*
X162662142Y-42775000D01*
X162519285Y-42703571D01*
X162305000Y-42703571D01*
X162162142Y-42775000D01*
X162090714Y-42846428D01*
X162019285Y-42989285D01*
X162019285Y-43417857D01*
X162090714Y-43560714D01*
X162162142Y-43632142D01*
X162305000Y-43703571D01*
X162519285Y-43703571D01*
X161376428Y-43703571D02*
X161376428Y-42703571D01*
X161376428Y-42846428D02*
X161305000Y-42775000D01*
X161162142Y-42703571D01*
X160947857Y-42703571D01*
X160805000Y-42775000D01*
X160733571Y-42917857D01*
X160733571Y-43703571D01*
X160733571Y-42917857D02*
X160662142Y-42775000D01*
X160519285Y-42703571D01*
X160305000Y-42703571D01*
X160162142Y-42775000D01*
X160090714Y-42917857D01*
X160090714Y-43703571D01*
X158447857Y-42703571D02*
X157876428Y-42703571D01*
X158233571Y-43703571D02*
X158233571Y-42417857D01*
X158162142Y-42275000D01*
X158019285Y-42203571D01*
X157876428Y-42203571D01*
X157162142Y-43703571D02*
X157305000Y-43632142D01*
X157376428Y-43560714D01*
X157447857Y-43417857D01*
X157447857Y-42989285D01*
X157376428Y-42846428D01*
X157305000Y-42775000D01*
X157162142Y-42703571D01*
X156947857Y-42703571D01*
X156805000Y-42775000D01*
X156733571Y-42846428D01*
X156662142Y-42989285D01*
X156662142Y-43417857D01*
X156733571Y-43560714D01*
X156805000Y-43632142D01*
X156947857Y-43703571D01*
X157162142Y-43703571D01*
X156019285Y-43703571D02*
X156019285Y-42703571D01*
X156019285Y-42989285D02*
X155947857Y-42846428D01*
X155876428Y-42775000D01*
X155733571Y-42703571D01*
X155590714Y-42703571D01*
X187019285Y-46182142D02*
X186876428Y-46253571D01*
X186590714Y-46253571D01*
X186447857Y-46182142D01*
X186376428Y-46039285D01*
X186376428Y-45967857D01*
X186447857Y-45825000D01*
X186590714Y-45753571D01*
X186805000Y-45753571D01*
X186947857Y-45682142D01*
X187019285Y-45539285D01*
X187019285Y-45467857D01*
X186947857Y-45325000D01*
X186805000Y-45253571D01*
X186590714Y-45253571D01*
X186447857Y-45325000D01*
X185090714Y-46182142D02*
X185233571Y-46253571D01*
X185519285Y-46253571D01*
X185662142Y-46182142D01*
X185733571Y-46110714D01*
X185805000Y-45967857D01*
X185805000Y-45539285D01*
X185733571Y-45396428D01*
X185662142Y-45325000D01*
X185519285Y-45253571D01*
X185233571Y-45253571D01*
X185090714Y-45325000D01*
X184447857Y-46253571D02*
X184447857Y-44753571D01*
X183805000Y-46253571D02*
X183805000Y-45467857D01*
X183876428Y-45325000D01*
X184019285Y-45253571D01*
X184233571Y-45253571D01*
X184376428Y-45325000D01*
X184447857Y-45396428D01*
X182519285Y-46182142D02*
X182662142Y-46253571D01*
X182947857Y-46253571D01*
X183090714Y-46182142D01*
X183162142Y-46039285D01*
X183162142Y-45467857D01*
X183090714Y-45325000D01*
X182947857Y-45253571D01*
X182662142Y-45253571D01*
X182519285Y-45325000D01*
X182447857Y-45467857D01*
X182447857Y-45610714D01*
X183162142Y-45753571D01*
X181805000Y-46253571D02*
X181805000Y-45253571D01*
X181805000Y-45396428D02*
X181733571Y-45325000D01*
X181590714Y-45253571D01*
X181376428Y-45253571D01*
X181233571Y-45325000D01*
X181162142Y-45467857D01*
X181162142Y-46253571D01*
X181162142Y-45467857D02*
X181090714Y-45325000D01*
X180947857Y-45253571D01*
X180733571Y-45253571D01*
X180590714Y-45325000D01*
X180519285Y-45467857D01*
X180519285Y-46253571D01*
X179162142Y-46253571D02*
X179162142Y-45467857D01*
X179233571Y-45325000D01*
X179376428Y-45253571D01*
X179662142Y-45253571D01*
X179805000Y-45325000D01*
X179162142Y-46182142D02*
X179305000Y-46253571D01*
X179662142Y-46253571D01*
X179805000Y-46182142D01*
X179876428Y-46039285D01*
X179876428Y-45896428D01*
X179805000Y-45753571D01*
X179662142Y-45682142D01*
X179305000Y-45682142D01*
X179162142Y-45610714D01*
X178662142Y-45253571D02*
X178090714Y-45253571D01*
X178447857Y-44753571D02*
X178447857Y-46039285D01*
X178376428Y-46182142D01*
X178233571Y-46253571D01*
X178090714Y-46253571D01*
X177590714Y-46253571D02*
X177590714Y-45253571D01*
X177590714Y-44753571D02*
X177662142Y-44825000D01*
X177590714Y-44896428D01*
X177519285Y-44825000D01*
X177590714Y-44753571D01*
X177590714Y-44896428D01*
X176233571Y-46182142D02*
X176376428Y-46253571D01*
X176662142Y-46253571D01*
X176805000Y-46182142D01*
X176876428Y-46110714D01*
X176947857Y-45967857D01*
X176947857Y-45539285D01*
X176876428Y-45396428D01*
X176805000Y-45325000D01*
X176662142Y-45253571D01*
X176376428Y-45253571D01*
X176233571Y-45325000D01*
X173805000Y-46253571D02*
X173805000Y-45467857D01*
X173876428Y-45325000D01*
X174019285Y-45253571D01*
X174305000Y-45253571D01*
X174447857Y-45325000D01*
X173805000Y-46182142D02*
X173947857Y-46253571D01*
X174305000Y-46253571D01*
X174447857Y-46182142D01*
X174519285Y-46039285D01*
X174519285Y-45896428D01*
X174447857Y-45753571D01*
X174305000Y-45682142D01*
X173947857Y-45682142D01*
X173805000Y-45610714D01*
X173090714Y-45253571D02*
X173090714Y-46253571D01*
X173090714Y-45396428D02*
X173019285Y-45325000D01*
X172876428Y-45253571D01*
X172662142Y-45253571D01*
X172519285Y-45325000D01*
X172447857Y-45467857D01*
X172447857Y-46253571D01*
X171090714Y-46253571D02*
X171090714Y-44753571D01*
X171090714Y-46182142D02*
X171233571Y-46253571D01*
X171519285Y-46253571D01*
X171662142Y-46182142D01*
X171733571Y-46110714D01*
X171805000Y-45967857D01*
X171805000Y-45539285D01*
X171733571Y-45396428D01*
X171662142Y-45325000D01*
X171519285Y-45253571D01*
X171233571Y-45253571D01*
X171090714Y-45325000D01*
X168590714Y-45253571D02*
X168590714Y-46253571D01*
X169233571Y-45253571D02*
X169233571Y-46039285D01*
X169162142Y-46182142D01*
X169019285Y-46253571D01*
X168805000Y-46253571D01*
X168662142Y-46182142D01*
X168590714Y-46110714D01*
X167947857Y-46182142D02*
X167805000Y-46253571D01*
X167519285Y-46253571D01*
X167376428Y-46182142D01*
X167305000Y-46039285D01*
X167305000Y-45967857D01*
X167376428Y-45825000D01*
X167519285Y-45753571D01*
X167733571Y-45753571D01*
X167876428Y-45682142D01*
X167947857Y-45539285D01*
X167947857Y-45467857D01*
X167876428Y-45325000D01*
X167733571Y-45253571D01*
X167519285Y-45253571D01*
X167376428Y-45325000D01*
X166019285Y-46253571D02*
X166019285Y-45467857D01*
X166090714Y-45325000D01*
X166233571Y-45253571D01*
X166519285Y-45253571D01*
X166662142Y-45325000D01*
X166019285Y-46182142D02*
X166162142Y-46253571D01*
X166519285Y-46253571D01*
X166662142Y-46182142D01*
X166733571Y-46039285D01*
X166733571Y-45896428D01*
X166662142Y-45753571D01*
X166519285Y-45682142D01*
X166162142Y-45682142D01*
X166019285Y-45610714D01*
X164662142Y-45253571D02*
X164662142Y-46467857D01*
X164733571Y-46610714D01*
X164805000Y-46682142D01*
X164947857Y-46753571D01*
X165162142Y-46753571D01*
X165305000Y-46682142D01*
X164662142Y-46182142D02*
X164805000Y-46253571D01*
X165090714Y-46253571D01*
X165233571Y-46182142D01*
X165305000Y-46110714D01*
X165376428Y-45967857D01*
X165376428Y-45539285D01*
X165305000Y-45396428D01*
X165233571Y-45325000D01*
X165090714Y-45253571D01*
X164805000Y-45253571D01*
X164662142Y-45325000D01*
X163376428Y-46182142D02*
X163519285Y-46253571D01*
X163805000Y-46253571D01*
X163947857Y-46182142D01*
X164019285Y-46039285D01*
X164019285Y-45467857D01*
X163947857Y-45325000D01*
X163805000Y-45253571D01*
X163519285Y-45253571D01*
X163376428Y-45325000D01*
X163305000Y-45467857D01*
X163305000Y-45610714D01*
X164019285Y-45753571D01*
X161519285Y-46253571D02*
X161519285Y-45253571D01*
X161519285Y-44753571D02*
X161590714Y-44825000D01*
X161519285Y-44896428D01*
X161447857Y-44825000D01*
X161519285Y-44753571D01*
X161519285Y-44896428D01*
X160805000Y-45253571D02*
X160805000Y-46253571D01*
X160805000Y-45396428D02*
X160733571Y-45325000D01*
X160590714Y-45253571D01*
X160376428Y-45253571D01*
X160233571Y-45325000D01*
X160162142Y-45467857D01*
X160162142Y-46253571D01*
X159662142Y-45253571D02*
X159090714Y-45253571D01*
X159447857Y-46253571D02*
X159447857Y-44967857D01*
X159376428Y-44825000D01*
X159233571Y-44753571D01*
X159090714Y-44753571D01*
X158376428Y-46253571D02*
X158519285Y-46182142D01*
X158590714Y-46110714D01*
X158662142Y-45967857D01*
X158662142Y-45539285D01*
X158590714Y-45396428D01*
X158519285Y-45325000D01*
X158376428Y-45253571D01*
X158162142Y-45253571D01*
X158019285Y-45325000D01*
X157947857Y-45396428D01*
X157876428Y-45539285D01*
X157876428Y-45967857D01*
X157947857Y-46110714D01*
X158019285Y-46182142D01*
X158162142Y-46253571D01*
X158376428Y-46253571D01*
X130623571Y-64475000D02*
X130766428Y-64403571D01*
X130980714Y-64403571D01*
X131195000Y-64475000D01*
X131337857Y-64617857D01*
X131409285Y-64760714D01*
X131480714Y-65046428D01*
X131480714Y-65260714D01*
X131409285Y-65546428D01*
X131337857Y-65689285D01*
X131195000Y-65832142D01*
X130980714Y-65903571D01*
X130837857Y-65903571D01*
X130623571Y-65832142D01*
X130552142Y-65760714D01*
X130552142Y-65260714D01*
X130837857Y-65260714D01*
X129909285Y-65903571D02*
X129909285Y-64403571D01*
X129052142Y-65903571D01*
X129052142Y-64403571D01*
X128337857Y-65903571D02*
X128337857Y-64403571D01*
X127980714Y-64403571D01*
X127766428Y-64475000D01*
X127623571Y-64617857D01*
X127552142Y-64760714D01*
X127480714Y-65046428D01*
X127480714Y-65260714D01*
X127552142Y-65546428D01*
X127623571Y-65689285D01*
X127766428Y-65832142D01*
X127980714Y-65903571D01*
X128337857Y-65903571D01*
X170266428Y-66953571D02*
X170266428Y-68167857D01*
X170195000Y-68310714D01*
X170123571Y-68382142D01*
X169980714Y-68453571D01*
X169695000Y-68453571D01*
X169552142Y-68382142D01*
X169480714Y-68310714D01*
X169409285Y-68167857D01*
X169409285Y-66953571D01*
X168766428Y-68382142D02*
X168623571Y-68453571D01*
X168337857Y-68453571D01*
X168195000Y-68382142D01*
X168123571Y-68239285D01*
X168123571Y-68167857D01*
X168195000Y-68025000D01*
X168337857Y-67953571D01*
X168552142Y-67953571D01*
X168695000Y-67882142D01*
X168766428Y-67739285D01*
X168766428Y-67667857D01*
X168695000Y-67525000D01*
X168552142Y-67453571D01*
X168337857Y-67453571D01*
X168195000Y-67525000D01*
X166909285Y-68382142D02*
X167052142Y-68453571D01*
X167337857Y-68453571D01*
X167480714Y-68382142D01*
X167552142Y-68239285D01*
X167552142Y-67667857D01*
X167480714Y-67525000D01*
X167337857Y-67453571D01*
X167052142Y-67453571D01*
X166909285Y-67525000D01*
X166837857Y-67667857D01*
X166837857Y-67810714D01*
X167552142Y-67953571D01*
X164480714Y-68382142D02*
X164623571Y-68453571D01*
X164909285Y-68453571D01*
X165052142Y-68382142D01*
X165123571Y-68239285D01*
X165123571Y-67667857D01*
X165052142Y-67525000D01*
X164909285Y-67453571D01*
X164623571Y-67453571D01*
X164480714Y-67525000D01*
X164409285Y-67667857D01*
X164409285Y-67810714D01*
X165123571Y-67953571D01*
X163909285Y-68453571D02*
X163123571Y-67453571D01*
X163909285Y-67453571D02*
X163123571Y-68453571D01*
X162766428Y-67453571D02*
X162195000Y-67453571D01*
X162552142Y-66953571D02*
X162552142Y-68239285D01*
X162480714Y-68382142D01*
X162337857Y-68453571D01*
X162195000Y-68453571D01*
X161123571Y-68382142D02*
X161266428Y-68453571D01*
X161552142Y-68453571D01*
X161695000Y-68382142D01*
X161766428Y-68239285D01*
X161766428Y-67667857D01*
X161695000Y-67525000D01*
X161552142Y-67453571D01*
X161266428Y-67453571D01*
X161123571Y-67525000D01*
X161052142Y-67667857D01*
X161052142Y-67810714D01*
X161766428Y-67953571D01*
X160409285Y-68453571D02*
X160409285Y-67453571D01*
X160409285Y-67739285D02*
X160337857Y-67596428D01*
X160266428Y-67525000D01*
X160123571Y-67453571D01*
X159980714Y-67453571D01*
X159480714Y-67453571D02*
X159480714Y-68453571D01*
X159480714Y-67596428D02*
X159409285Y-67525000D01*
X159266428Y-67453571D01*
X159052142Y-67453571D01*
X158909285Y-67525000D01*
X158837857Y-67667857D01*
X158837857Y-68453571D01*
X157480714Y-68453571D02*
X157480714Y-67667857D01*
X157552142Y-67525000D01*
X157695000Y-67453571D01*
X157980714Y-67453571D01*
X158123571Y-67525000D01*
X157480714Y-68382142D02*
X157623571Y-68453571D01*
X157980714Y-68453571D01*
X158123571Y-68382142D01*
X158195000Y-68239285D01*
X158195000Y-68096428D01*
X158123571Y-67953571D01*
X157980714Y-67882142D01*
X157623571Y-67882142D01*
X157480714Y-67810714D01*
X156552142Y-68453571D02*
X156695000Y-68382142D01*
X156766428Y-68239285D01*
X156766428Y-66953571D01*
X154195000Y-67453571D02*
X154195000Y-68667857D01*
X154266428Y-68810714D01*
X154337857Y-68882142D01*
X154480714Y-68953571D01*
X154695000Y-68953571D01*
X154837857Y-68882142D01*
X154195000Y-68382142D02*
X154337857Y-68453571D01*
X154623571Y-68453571D01*
X154766428Y-68382142D01*
X154837857Y-68310714D01*
X154909285Y-68167857D01*
X154909285Y-67739285D01*
X154837857Y-67596428D01*
X154766428Y-67525000D01*
X154623571Y-67453571D01*
X154337857Y-67453571D01*
X154195000Y-67525000D01*
X153480714Y-68453571D02*
X153480714Y-67453571D01*
X153480714Y-67739285D02*
X153409285Y-67596428D01*
X153337857Y-67525000D01*
X153195000Y-67453571D01*
X153052142Y-67453571D01*
X152337857Y-68453571D02*
X152480714Y-68382142D01*
X152552142Y-68310714D01*
X152623571Y-68167857D01*
X152623571Y-67739285D01*
X152552142Y-67596428D01*
X152480714Y-67525000D01*
X152337857Y-67453571D01*
X152123571Y-67453571D01*
X151980714Y-67525000D01*
X151909285Y-67596428D01*
X151837857Y-67739285D01*
X151837857Y-68167857D01*
X151909285Y-68310714D01*
X151980714Y-68382142D01*
X152123571Y-68453571D01*
X152337857Y-68453571D01*
X150552142Y-67453571D02*
X150552142Y-68453571D01*
X151195000Y-67453571D02*
X151195000Y-68239285D01*
X151123571Y-68382142D01*
X150980714Y-68453571D01*
X150766428Y-68453571D01*
X150623571Y-68382142D01*
X150552142Y-68310714D01*
X149837857Y-67453571D02*
X149837857Y-68453571D01*
X149837857Y-67596428D02*
X149766428Y-67525000D01*
X149623571Y-67453571D01*
X149409285Y-67453571D01*
X149266428Y-67525000D01*
X149195000Y-67667857D01*
X149195000Y-68453571D01*
X147837857Y-68453571D02*
X147837857Y-66953571D01*
X147837857Y-68382142D02*
X147980714Y-68453571D01*
X148266428Y-68453571D01*
X148409285Y-68382142D01*
X148480714Y-68310714D01*
X148552142Y-68167857D01*
X148552142Y-67739285D01*
X148480714Y-67596428D01*
X148409285Y-67525000D01*
X148266428Y-67453571D01*
X147980714Y-67453571D01*
X147837857Y-67525000D01*
X146195000Y-67453571D02*
X145623571Y-67453571D01*
X145980714Y-68453571D02*
X145980714Y-67167857D01*
X145909285Y-67025000D01*
X145766428Y-66953571D01*
X145623571Y-66953571D01*
X144909285Y-68453571D02*
X145052142Y-68382142D01*
X145123571Y-68310714D01*
X145195000Y-68167857D01*
X145195000Y-67739285D01*
X145123571Y-67596428D01*
X145052142Y-67525000D01*
X144909285Y-67453571D01*
X144695000Y-67453571D01*
X144552142Y-67525000D01*
X144480714Y-67596428D01*
X144409285Y-67739285D01*
X144409285Y-68167857D01*
X144480714Y-68310714D01*
X144552142Y-68382142D01*
X144695000Y-68453571D01*
X144909285Y-68453571D01*
X143766428Y-68453571D02*
X143766428Y-67453571D01*
X143766428Y-67739285D02*
X143695000Y-67596428D01*
X143623571Y-67525000D01*
X143480714Y-67453571D01*
X143337857Y-67453571D01*
X141052142Y-68382142D02*
X141195000Y-68453571D01*
X141480714Y-68453571D01*
X141623571Y-68382142D01*
X141695000Y-68310714D01*
X141766428Y-68167857D01*
X141766428Y-67739285D01*
X141695000Y-67596428D01*
X141623571Y-67525000D01*
X141480714Y-67453571D01*
X141195000Y-67453571D01*
X141052142Y-67525000D01*
X139766428Y-67453571D02*
X139766428Y-68453571D01*
X140409285Y-67453571D02*
X140409285Y-68239285D01*
X140337857Y-68382142D01*
X140195000Y-68453571D01*
X139980714Y-68453571D01*
X139837857Y-68382142D01*
X139766428Y-68310714D01*
X139052142Y-68453571D02*
X139052142Y-67453571D01*
X139052142Y-67739285D02*
X138980714Y-67596428D01*
X138909285Y-67525000D01*
X138766428Y-67453571D01*
X138623571Y-67453571D01*
X138123571Y-68453571D02*
X138123571Y-67453571D01*
X138123571Y-67739285D02*
X138052142Y-67596428D01*
X137980714Y-67525000D01*
X137837857Y-67453571D01*
X137695000Y-67453571D01*
X136623571Y-68382142D02*
X136766428Y-68453571D01*
X137052142Y-68453571D01*
X137195000Y-68382142D01*
X137266428Y-68239285D01*
X137266428Y-67667857D01*
X137195000Y-67525000D01*
X137052142Y-67453571D01*
X136766428Y-67453571D01*
X136623571Y-67525000D01*
X136552142Y-67667857D01*
X136552142Y-67810714D01*
X137266428Y-67953571D01*
X135909285Y-67453571D02*
X135909285Y-68453571D01*
X135909285Y-67596428D02*
X135837857Y-67525000D01*
X135695000Y-67453571D01*
X135480714Y-67453571D01*
X135337857Y-67525000D01*
X135266428Y-67667857D01*
X135266428Y-68453571D01*
X134766428Y-67453571D02*
X134195000Y-67453571D01*
X134552142Y-66953571D02*
X134552142Y-68239285D01*
X134480714Y-68382142D01*
X134337857Y-68453571D01*
X134195000Y-68453571D01*
X132552142Y-67453571D02*
X131409285Y-67882142D01*
X132552142Y-68310714D01*
X128909285Y-67453571D02*
X128909285Y-68453571D01*
X129266428Y-66882142D02*
X129623571Y-67953571D01*
X128695000Y-67953571D01*
X128195000Y-68025000D02*
X127480714Y-68025000D01*
X128337857Y-68453571D02*
X127837857Y-66953571D01*
X127337857Y-68453571D01*
X137552142Y-62178571D02*
X137552142Y-60678571D01*
X136552142Y-60678571D02*
X136266428Y-60678571D01*
X136123571Y-60750000D01*
X135980714Y-60892857D01*
X135909285Y-61178571D01*
X135909285Y-61678571D01*
X135980714Y-61964285D01*
X136123571Y-62107142D01*
X136266428Y-62178571D01*
X136552142Y-62178571D01*
X136695000Y-62107142D01*
X136837857Y-61964285D01*
X136909285Y-61678571D01*
X136909285Y-61178571D01*
X136837857Y-60892857D01*
X136695000Y-60750000D01*
X136552142Y-60678571D01*
X134480714Y-62178571D02*
X135337857Y-62178571D01*
X134909285Y-62178571D02*
X134909285Y-60678571D01*
X135052142Y-60892857D01*
X135195000Y-61035714D01*
X135337857Y-61107142D01*
X133766428Y-62178571D02*
X133480714Y-62178571D01*
X133337857Y-62107142D01*
X133266428Y-62035714D01*
X133123571Y-61821428D01*
X133052142Y-61535714D01*
X133052142Y-60964285D01*
X133123571Y-60821428D01*
X133195000Y-60750000D01*
X133337857Y-60678571D01*
X133623571Y-60678571D01*
X133766428Y-60750000D01*
X133837857Y-60821428D01*
X133909285Y-60964285D01*
X133909285Y-61321428D01*
X133837857Y-61464285D01*
X133766428Y-61535714D01*
X133623571Y-61607142D01*
X133337857Y-61607142D01*
X133195000Y-61535714D01*
X133123571Y-61464285D01*
X133052142Y-61321428D01*
X131266428Y-61607142D02*
X130123571Y-61607142D01*
X128409285Y-60678571D02*
X127409285Y-60678571D01*
X128052142Y-62178571D01*
X137552142Y-58678571D02*
X137552142Y-57178571D01*
X136552142Y-57178571D02*
X136266428Y-57178571D01*
X136123571Y-57250000D01*
X135980714Y-57392857D01*
X135909285Y-57678571D01*
X135909285Y-58178571D01*
X135980714Y-58464285D01*
X136123571Y-58607142D01*
X136266428Y-58678571D01*
X136552142Y-58678571D01*
X136695000Y-58607142D01*
X136837857Y-58464285D01*
X136909285Y-58178571D01*
X136909285Y-57678571D01*
X136837857Y-57392857D01*
X136695000Y-57250000D01*
X136552142Y-57178571D01*
X134480714Y-58678571D02*
X135337857Y-58678571D01*
X134909285Y-58678571D02*
X134909285Y-57178571D01*
X135052142Y-57392857D01*
X135195000Y-57535714D01*
X135337857Y-57607142D01*
X133623571Y-57821428D02*
X133766428Y-57750000D01*
X133837857Y-57678571D01*
X133909285Y-57535714D01*
X133909285Y-57464285D01*
X133837857Y-57321428D01*
X133766428Y-57250000D01*
X133623571Y-57178571D01*
X133337857Y-57178571D01*
X133195000Y-57250000D01*
X133123571Y-57321428D01*
X133052142Y-57464285D01*
X133052142Y-57535714D01*
X133123571Y-57678571D01*
X133195000Y-57750000D01*
X133337857Y-57821428D01*
X133623571Y-57821428D01*
X133766428Y-57892857D01*
X133837857Y-57964285D01*
X133909285Y-58107142D01*
X133909285Y-58392857D01*
X133837857Y-58535714D01*
X133766428Y-58607142D01*
X133623571Y-58678571D01*
X133337857Y-58678571D01*
X133195000Y-58607142D01*
X133123571Y-58535714D01*
X133052142Y-58392857D01*
X133052142Y-58107142D01*
X133123571Y-57964285D01*
X133195000Y-57892857D01*
X133337857Y-57821428D01*
X131266428Y-58107142D02*
X130123571Y-58107142D01*
X127623571Y-57178571D02*
X127909285Y-57178571D01*
X128052142Y-57250000D01*
X128123571Y-57321428D01*
X128266428Y-57535714D01*
X128337857Y-57821428D01*
X128337857Y-58392857D01*
X128266428Y-58535714D01*
X128195000Y-58607142D01*
X128052142Y-58678571D01*
X127766428Y-58678571D01*
X127623571Y-58607142D01*
X127552142Y-58535714D01*
X127480714Y-58392857D01*
X127480714Y-58035714D01*
X127552142Y-57892857D01*
X127623571Y-57821428D01*
X127766428Y-57750000D01*
X128052142Y-57750000D01*
X128195000Y-57821428D01*
X128266428Y-57892857D01*
X128337857Y-58035714D01*
X137552142Y-55428571D02*
X137552142Y-53928571D01*
X136552142Y-53928571D02*
X136266428Y-53928571D01*
X136123571Y-54000000D01*
X135980714Y-54142857D01*
X135909285Y-54428571D01*
X135909285Y-54928571D01*
X135980714Y-55214285D01*
X136123571Y-55357142D01*
X136266428Y-55428571D01*
X136552142Y-55428571D01*
X136695000Y-55357142D01*
X136837857Y-55214285D01*
X136909285Y-54928571D01*
X136909285Y-54428571D01*
X136837857Y-54142857D01*
X136695000Y-54000000D01*
X136552142Y-53928571D01*
X134480714Y-55428571D02*
X135337857Y-55428571D01*
X134909285Y-55428571D02*
X134909285Y-53928571D01*
X135052142Y-54142857D01*
X135195000Y-54285714D01*
X135337857Y-54357142D01*
X133980714Y-53928571D02*
X132980714Y-53928571D01*
X133623571Y-55428571D01*
X131266428Y-54857142D02*
X130123571Y-54857142D01*
X127552142Y-53928571D02*
X128266428Y-53928571D01*
X128337857Y-54642857D01*
X128266428Y-54571428D01*
X128123571Y-54500000D01*
X127766428Y-54500000D01*
X127623571Y-54571428D01*
X127552142Y-54642857D01*
X127480714Y-54785714D01*
X127480714Y-55142857D01*
X127552142Y-55285714D01*
X127623571Y-55357142D01*
X127766428Y-55428571D01*
X128123571Y-55428571D01*
X128266428Y-55357142D01*
X128337857Y-55285714D01*
X137552142Y-51678571D02*
X137552142Y-50178571D01*
X136552142Y-50178571D02*
X136266428Y-50178571D01*
X136123571Y-50250000D01*
X135980714Y-50392857D01*
X135909285Y-50678571D01*
X135909285Y-51178571D01*
X135980714Y-51464285D01*
X136123571Y-51607142D01*
X136266428Y-51678571D01*
X136552142Y-51678571D01*
X136695000Y-51607142D01*
X136837857Y-51464285D01*
X136909285Y-51178571D01*
X136909285Y-50678571D01*
X136837857Y-50392857D01*
X136695000Y-50250000D01*
X136552142Y-50178571D01*
X134480714Y-51678571D02*
X135337857Y-51678571D01*
X134909285Y-51678571D02*
X134909285Y-50178571D01*
X135052142Y-50392857D01*
X135195000Y-50535714D01*
X135337857Y-50607142D01*
X133195000Y-50178571D02*
X133480714Y-50178571D01*
X133623571Y-50250000D01*
X133695000Y-50321428D01*
X133837857Y-50535714D01*
X133909285Y-50821428D01*
X133909285Y-51392857D01*
X133837857Y-51535714D01*
X133766428Y-51607142D01*
X133623571Y-51678571D01*
X133337857Y-51678571D01*
X133195000Y-51607142D01*
X133123571Y-51535714D01*
X133052142Y-51392857D01*
X133052142Y-51035714D01*
X133123571Y-50892857D01*
X133195000Y-50821428D01*
X133337857Y-50750000D01*
X133623571Y-50750000D01*
X133766428Y-50821428D01*
X133837857Y-50892857D01*
X133909285Y-51035714D01*
X131266428Y-51107142D02*
X130123571Y-51107142D01*
X127623571Y-50678571D02*
X127623571Y-51678571D01*
X127980714Y-50107142D02*
X128337857Y-51178571D01*
X127409285Y-51178571D01*
X137552142Y-48428571D02*
X137552142Y-46928571D01*
X136552142Y-46928571D02*
X136266428Y-46928571D01*
X136123571Y-47000000D01*
X135980714Y-47142857D01*
X135909285Y-47428571D01*
X135909285Y-47928571D01*
X135980714Y-48214285D01*
X136123571Y-48357142D01*
X136266428Y-48428571D01*
X136552142Y-48428571D01*
X136695000Y-48357142D01*
X136837857Y-48214285D01*
X136909285Y-47928571D01*
X136909285Y-47428571D01*
X136837857Y-47142857D01*
X136695000Y-47000000D01*
X136552142Y-46928571D01*
X134480714Y-48428571D02*
X135337857Y-48428571D01*
X134909285Y-48428571D02*
X134909285Y-46928571D01*
X135052142Y-47142857D01*
X135195000Y-47285714D01*
X135337857Y-47357142D01*
X133123571Y-46928571D02*
X133837857Y-46928571D01*
X133909285Y-47642857D01*
X133837857Y-47571428D01*
X133695000Y-47500000D01*
X133337857Y-47500000D01*
X133195000Y-47571428D01*
X133123571Y-47642857D01*
X133052142Y-47785714D01*
X133052142Y-48142857D01*
X133123571Y-48285714D01*
X133195000Y-48357142D01*
X133337857Y-48428571D01*
X133695000Y-48428571D01*
X133837857Y-48357142D01*
X133909285Y-48285714D01*
X131266428Y-47857142D02*
X130123571Y-47857142D01*
X128409285Y-46928571D02*
X127480714Y-46928571D01*
X127980714Y-47500000D01*
X127766428Y-47500000D01*
X127623571Y-47571428D01*
X127552142Y-47642857D01*
X127480714Y-47785714D01*
X127480714Y-48142857D01*
X127552142Y-48285714D01*
X127623571Y-48357142D01*
X127766428Y-48428571D01*
X128195000Y-48428571D01*
X128337857Y-48357142D01*
X128409285Y-48285714D01*
X137802142Y-44928571D02*
X137802142Y-43428571D01*
X136802142Y-43428571D02*
X136516428Y-43428571D01*
X136373571Y-43500000D01*
X136230714Y-43642857D01*
X136159285Y-43928571D01*
X136159285Y-44428571D01*
X136230714Y-44714285D01*
X136373571Y-44857142D01*
X136516428Y-44928571D01*
X136802142Y-44928571D01*
X136945000Y-44857142D01*
X137087857Y-44714285D01*
X137159285Y-44428571D01*
X137159285Y-43928571D01*
X137087857Y-43642857D01*
X136945000Y-43500000D01*
X136802142Y-43428571D01*
X134730714Y-44928571D02*
X135587857Y-44928571D01*
X135159285Y-44928571D02*
X135159285Y-43428571D01*
X135302142Y-43642857D01*
X135445000Y-43785714D01*
X135587857Y-43857142D01*
X133445000Y-43928571D02*
X133445000Y-44928571D01*
X133802142Y-43357142D02*
X134159285Y-44428571D01*
X133230714Y-44428571D01*
X131516428Y-44357142D02*
X130373571Y-44357142D01*
X128587857Y-43571428D02*
X128516428Y-43500000D01*
X128373571Y-43428571D01*
X128016428Y-43428571D01*
X127873571Y-43500000D01*
X127802142Y-43571428D01*
X127730714Y-43714285D01*
X127730714Y-43857142D01*
X127802142Y-44071428D01*
X128659285Y-44928571D01*
X127730714Y-44928571D01*
X137802142Y-41178571D02*
X137802142Y-39678571D01*
X136802142Y-39678571D02*
X136516428Y-39678571D01*
X136373571Y-39750000D01*
X136230714Y-39892857D01*
X136159285Y-40178571D01*
X136159285Y-40678571D01*
X136230714Y-40964285D01*
X136373571Y-41107142D01*
X136516428Y-41178571D01*
X136802142Y-41178571D01*
X136945000Y-41107142D01*
X137087857Y-40964285D01*
X137159285Y-40678571D01*
X137159285Y-40178571D01*
X137087857Y-39892857D01*
X136945000Y-39750000D01*
X136802142Y-39678571D01*
X134730714Y-41178571D02*
X135587857Y-41178571D01*
X135159285Y-41178571D02*
X135159285Y-39678571D01*
X135302142Y-39892857D01*
X135445000Y-40035714D01*
X135587857Y-40107142D01*
X134230714Y-39678571D02*
X133302142Y-39678571D01*
X133802142Y-40250000D01*
X133587857Y-40250000D01*
X133445000Y-40321428D01*
X133373571Y-40392857D01*
X133302142Y-40535714D01*
X133302142Y-40892857D01*
X133373571Y-41035714D01*
X133445000Y-41107142D01*
X133587857Y-41178571D01*
X134016428Y-41178571D01*
X134159285Y-41107142D01*
X134230714Y-41035714D01*
X131516428Y-40607142D02*
X130373571Y-40607142D01*
X127730714Y-41178571D02*
X128587857Y-41178571D01*
X128159285Y-41178571D02*
X128159285Y-39678571D01*
X128302142Y-39892857D01*
X128445000Y-40035714D01*
X128587857Y-40107142D01*
X137802142Y-37928571D02*
X137802142Y-36428571D01*
X136802142Y-36428571D02*
X136516428Y-36428571D01*
X136373571Y-36500000D01*
X136230714Y-36642857D01*
X136159285Y-36928571D01*
X136159285Y-37428571D01*
X136230714Y-37714285D01*
X136373571Y-37857142D01*
X136516428Y-37928571D01*
X136802142Y-37928571D01*
X136945000Y-37857142D01*
X137087857Y-37714285D01*
X137159285Y-37428571D01*
X137159285Y-36928571D01*
X137087857Y-36642857D01*
X136945000Y-36500000D01*
X136802142Y-36428571D01*
X134730714Y-37928571D02*
X135587857Y-37928571D01*
X135159285Y-37928571D02*
X135159285Y-36428571D01*
X135302142Y-36642857D01*
X135445000Y-36785714D01*
X135587857Y-36857142D01*
X134159285Y-36571428D02*
X134087857Y-36500000D01*
X133945000Y-36428571D01*
X133587857Y-36428571D01*
X133445000Y-36500000D01*
X133373571Y-36571428D01*
X133302142Y-36714285D01*
X133302142Y-36857142D01*
X133373571Y-37071428D01*
X134230714Y-37928571D01*
X133302142Y-37928571D01*
X131516428Y-37357142D02*
X130373571Y-37357142D01*
X128230714Y-36428571D02*
X128087857Y-36428571D01*
X127945000Y-36500000D01*
X127873571Y-36571428D01*
X127802142Y-36714285D01*
X127730714Y-37000000D01*
X127730714Y-37357142D01*
X127802142Y-37642857D01*
X127873571Y-37785714D01*
X127945000Y-37857142D01*
X128087857Y-37928571D01*
X128230714Y-37928571D01*
X128373571Y-37857142D01*
X128445000Y-37785714D01*
X128516428Y-37642857D01*
X128587857Y-37357142D01*
X128587857Y-37000000D01*
X128516428Y-36714285D01*
X128445000Y-36571428D01*
X128373571Y-36500000D01*
X128230714Y-36428571D01*
X150892857Y-33678571D02*
X150892857Y-32178571D01*
X150321428Y-32178571D01*
X150178571Y-32250000D01*
X150107142Y-32321428D01*
X150035714Y-32464285D01*
X150035714Y-32678571D01*
X150107142Y-32821428D01*
X150178571Y-32892857D01*
X150321428Y-32964285D01*
X150892857Y-32964285D01*
X149535714Y-32178571D02*
X149178571Y-33678571D01*
X148892857Y-32607142D01*
X148607142Y-33678571D01*
X148250000Y-32178571D01*
X147678571Y-33678571D02*
X147678571Y-32178571D01*
X147178571Y-33250000D01*
X146678571Y-32178571D01*
X146678571Y-33678571D01*
X144535714Y-32178571D02*
X144250000Y-32178571D01*
X144107142Y-32250000D01*
X143964285Y-32392857D01*
X143892857Y-32678571D01*
X143892857Y-33178571D01*
X143964285Y-33464285D01*
X144107142Y-33607142D01*
X144250000Y-33678571D01*
X144535714Y-33678571D01*
X144678571Y-33607142D01*
X144821428Y-33464285D01*
X144892857Y-33178571D01*
X144892857Y-32678571D01*
X144821428Y-32392857D01*
X144678571Y-32250000D01*
X144535714Y-32178571D01*
X142607142Y-32678571D02*
X142607142Y-33678571D01*
X143250000Y-32678571D02*
X143250000Y-33464285D01*
X143178571Y-33607142D01*
X143035714Y-33678571D01*
X142821428Y-33678571D01*
X142678571Y-33607142D01*
X142607142Y-33535714D01*
X142107142Y-32678571D02*
X141535714Y-32678571D01*
X141892857Y-32178571D02*
X141892857Y-33464285D01*
X141821428Y-33607142D01*
X141678571Y-33678571D01*
X141535714Y-33678571D01*
X141035714Y-32678571D02*
X141035714Y-34178571D01*
X141035714Y-32750000D02*
X140892857Y-32678571D01*
X140607142Y-32678571D01*
X140464285Y-32750000D01*
X140392857Y-32821428D01*
X140321428Y-32964285D01*
X140321428Y-33392857D01*
X140392857Y-33535714D01*
X140464285Y-33607142D01*
X140607142Y-33678571D01*
X140892857Y-33678571D01*
X141035714Y-33607142D01*
X139035714Y-32678571D02*
X139035714Y-33678571D01*
X139678571Y-32678571D02*
X139678571Y-33464285D01*
X139607142Y-33607142D01*
X139464285Y-33678571D01*
X139250000Y-33678571D01*
X139107142Y-33607142D01*
X139035714Y-33535714D01*
X138535714Y-32678571D02*
X137964285Y-32678571D01*
X138321428Y-32178571D02*
X138321428Y-33464285D01*
X138250000Y-33607142D01*
X138107142Y-33678571D01*
X137964285Y-33678571D01*
X137535714Y-33607142D02*
X137392857Y-33678571D01*
X137107142Y-33678571D01*
X136964285Y-33607142D01*
X136892857Y-33464285D01*
X136892857Y-33392857D01*
X136964285Y-33250000D01*
X137107142Y-33178571D01*
X137321428Y-33178571D01*
X137464285Y-33107142D01*
X137535714Y-32964285D01*
X137535714Y-32892857D01*
X137464285Y-32750000D01*
X137321428Y-32678571D01*
X137107142Y-32678571D01*
X136964285Y-32750000D01*
X135178571Y-32321428D02*
X135107142Y-32250000D01*
X134964285Y-32178571D01*
X134607142Y-32178571D01*
X134464285Y-32250000D01*
X134392857Y-32321428D01*
X134321428Y-32464285D01*
X134321428Y-32607142D01*
X134392857Y-32821428D01*
X135250000Y-33678571D01*
X134321428Y-33678571D01*
X133750000Y-33250000D02*
X133035714Y-33250000D01*
X133892857Y-33678571D02*
X133392857Y-32178571D01*
X132892857Y-33678571D01*
X131250000Y-33678571D02*
X131250000Y-32178571D01*
X130750000Y-33250000D01*
X130250000Y-32178571D01*
X130250000Y-33678571D01*
X129607142Y-33250000D02*
X128892857Y-33250000D01*
X129750000Y-33678571D02*
X129250000Y-32178571D01*
X128750000Y-33678571D01*
X128392857Y-32178571D02*
X127392857Y-33678571D01*
X127392857Y-32178571D02*
X128392857Y-33678571D01*
X125107142Y-33607142D02*
X125250000Y-33678571D01*
X125535714Y-33678571D01*
X125678571Y-33607142D01*
X125750000Y-33464285D01*
X125750000Y-32892857D01*
X125678571Y-32750000D01*
X125535714Y-32678571D01*
X125250000Y-32678571D01*
X125107142Y-32750000D01*
X125035714Y-32892857D01*
X125035714Y-33035714D01*
X125750000Y-33178571D01*
X123750000Y-33678571D02*
X123750000Y-32892857D01*
X123821428Y-32750000D01*
X123964285Y-32678571D01*
X124250000Y-32678571D01*
X124392857Y-32750000D01*
X123750000Y-33607142D02*
X123892857Y-33678571D01*
X124250000Y-33678571D01*
X124392857Y-33607142D01*
X124464285Y-33464285D01*
X124464285Y-33321428D01*
X124392857Y-33178571D01*
X124250000Y-33107142D01*
X123892857Y-33107142D01*
X123750000Y-33035714D01*
X122392857Y-33607142D02*
X122535714Y-33678571D01*
X122821428Y-33678571D01*
X122964285Y-33607142D01*
X123035714Y-33535714D01*
X123107142Y-33392857D01*
X123107142Y-32964285D01*
X123035714Y-32821428D01*
X122964285Y-32750000D01*
X122821428Y-32678571D01*
X122535714Y-32678571D01*
X122392857Y-32750000D01*
X121750000Y-33678571D02*
X121750000Y-32178571D01*
X121107142Y-33678571D02*
X121107142Y-32892857D01*
X121178571Y-32750000D01*
X121321428Y-32678571D01*
X121535714Y-32678571D01*
X121678571Y-32750000D01*
X121750000Y-32821428D01*
D11*
X125292857Y-77592857D02*
X126207142Y-77592857D01*
X131928571Y-73842857D02*
X131014285Y-73842857D01*
X131471428Y-74338095D02*
X131471428Y-73347619D01*
X129871428Y-73038095D02*
X130442857Y-73038095D01*
X130500000Y-73657142D01*
X130442857Y-73595238D01*
X130328571Y-73533333D01*
X130042857Y-73533333D01*
X129928571Y-73595238D01*
X129871428Y-73657142D01*
X129814285Y-73780952D01*
X129814285Y-74090476D01*
X129871428Y-74214285D01*
X129928571Y-74276190D01*
X130042857Y-74338095D01*
X130328571Y-74338095D01*
X130442857Y-74276190D01*
X130500000Y-74214285D01*
X129300000Y-73842857D02*
X128385714Y-73842857D01*
X127871428Y-73161904D02*
X127814285Y-73100000D01*
X127700000Y-73038095D01*
X127414285Y-73038095D01*
X127300000Y-73100000D01*
X127242857Y-73161904D01*
X127185714Y-73285714D01*
X127185714Y-73409523D01*
X127242857Y-73595238D01*
X127928571Y-74338095D01*
X127185714Y-74338095D01*
X126157142Y-73471428D02*
X126157142Y-74338095D01*
X126442857Y-72976190D02*
X126728571Y-73904761D01*
X125985714Y-73904761D01*
X125700000Y-73038095D02*
X125300000Y-74338095D01*
X124900000Y-73038095D01*
D10*
X187162142Y-87103571D02*
X186662142Y-88603571D01*
X186162142Y-87103571D01*
X185662142Y-88603571D02*
X185662142Y-87603571D01*
X185662142Y-87103571D02*
X185733571Y-87175000D01*
X185662142Y-87246428D01*
X185590714Y-87175000D01*
X185662142Y-87103571D01*
X185662142Y-87246428D01*
X184947857Y-87603571D02*
X184947857Y-88603571D01*
X184947857Y-87746428D02*
X184876428Y-87675000D01*
X184733571Y-87603571D01*
X184519285Y-87603571D01*
X184376428Y-87675000D01*
X184305000Y-87817857D01*
X184305000Y-88603571D01*
X183805000Y-87603571D02*
X183233571Y-87603571D01*
X183590714Y-87103571D02*
X183590714Y-88389285D01*
X183519285Y-88532142D01*
X183376428Y-88603571D01*
X183233571Y-88603571D01*
X182019285Y-88603571D02*
X182733571Y-88603571D01*
X182733571Y-87103571D01*
X180876428Y-88603571D02*
X180876428Y-87817857D01*
X180947857Y-87675000D01*
X181090714Y-87603571D01*
X181376428Y-87603571D01*
X181519285Y-87675000D01*
X180876428Y-88532142D02*
X181019285Y-88603571D01*
X181376428Y-88603571D01*
X181519285Y-88532142D01*
X181590714Y-88389285D01*
X181590714Y-88246428D01*
X181519285Y-88103571D01*
X181376428Y-88032142D01*
X181019285Y-88032142D01*
X180876428Y-87960714D01*
X180162142Y-88603571D02*
X180162142Y-87103571D01*
X180162142Y-87675000D02*
X180019285Y-87603571D01*
X179733571Y-87603571D01*
X179590714Y-87675000D01*
X179519285Y-87746428D01*
X179447857Y-87889285D01*
X179447857Y-88317857D01*
X179519285Y-88460714D01*
X179590714Y-88532142D01*
X179733571Y-88603571D01*
X180019285Y-88603571D01*
X180162142Y-88532142D01*
X178876428Y-88532142D02*
X178733571Y-88603571D01*
X178447857Y-88603571D01*
X178305000Y-88532142D01*
X178233571Y-88389285D01*
X178233571Y-88317857D01*
X178305000Y-88175000D01*
X178447857Y-88103571D01*
X178662142Y-88103571D01*
X178805000Y-88032142D01*
X178876428Y-87889285D01*
X178876428Y-87817857D01*
X178805000Y-87675000D01*
X178662142Y-87603571D01*
X178447857Y-87603571D01*
X178305000Y-87675000D01*
X176447857Y-87817857D02*
X175947857Y-87817857D01*
X175733571Y-88603571D02*
X176447857Y-88603571D01*
X176447857Y-87103571D01*
X175733571Y-87103571D01*
X175162142Y-88532142D02*
X174947857Y-88603571D01*
X174590714Y-88603571D01*
X174447857Y-88532142D01*
X174376428Y-88460714D01*
X174305000Y-88317857D01*
X174305000Y-88175000D01*
X174376428Y-88032142D01*
X174447857Y-87960714D01*
X174590714Y-87889285D01*
X174876428Y-87817857D01*
X175019285Y-87746428D01*
X175090714Y-87675000D01*
X175162142Y-87532142D01*
X175162142Y-87389285D01*
X175090714Y-87246428D01*
X175019285Y-87175000D01*
X174876428Y-87103571D01*
X174519285Y-87103571D01*
X174305000Y-87175000D01*
X173662142Y-88603571D02*
X173662142Y-87103571D01*
X173090714Y-87103571D01*
X172947857Y-87175000D01*
X172876428Y-87246428D01*
X172805000Y-87389285D01*
X172805000Y-87603571D01*
X172876428Y-87746428D01*
X172947857Y-87817857D01*
X173090714Y-87889285D01*
X173662142Y-87889285D01*
X172305000Y-87103571D02*
X171376428Y-87103571D01*
X171876428Y-87675000D01*
X171662142Y-87675000D01*
X171519285Y-87746428D01*
X171447857Y-87817857D01*
X171376428Y-87960714D01*
X171376428Y-88317857D01*
X171447857Y-88460714D01*
X171519285Y-88532142D01*
X171662142Y-88603571D01*
X172090714Y-88603571D01*
X172233571Y-88532142D01*
X172305000Y-88460714D01*
X170805000Y-87246428D02*
X170733571Y-87175000D01*
X170590714Y-87103571D01*
X170233571Y-87103571D01*
X170090714Y-87175000D01*
X170019285Y-87246428D01*
X169947857Y-87389285D01*
X169947857Y-87532142D01*
X170019285Y-87746428D01*
X170876428Y-88603571D01*
X169947857Y-88603571D01*
X168305000Y-87103571D02*
X167947857Y-88603571D01*
X167662142Y-87532142D01*
X167376428Y-88603571D01*
X167019285Y-87103571D01*
X165590714Y-88603571D02*
X166090714Y-87889285D01*
X166447857Y-88603571D02*
X166447857Y-87103571D01*
X165876428Y-87103571D01*
X165733571Y-87175000D01*
X165662142Y-87246428D01*
X165590714Y-87389285D01*
X165590714Y-87603571D01*
X165662142Y-87746428D01*
X165733571Y-87817857D01*
X165876428Y-87889285D01*
X166447857Y-87889285D01*
X164662142Y-87103571D02*
X164376428Y-87103571D01*
X164233571Y-87175000D01*
X164090714Y-87317857D01*
X164019285Y-87603571D01*
X164019285Y-88103571D01*
X164090714Y-88389285D01*
X164233571Y-88532142D01*
X164376428Y-88603571D01*
X164662142Y-88603571D01*
X164805000Y-88532142D01*
X164947857Y-88389285D01*
X165019285Y-88103571D01*
X165019285Y-87603571D01*
X164947857Y-87317857D01*
X164805000Y-87175000D01*
X164662142Y-87103571D01*
X163090714Y-87103571D02*
X162805000Y-87103571D01*
X162662142Y-87175000D01*
X162519285Y-87317857D01*
X162447857Y-87603571D01*
X162447857Y-88103571D01*
X162519285Y-88389285D01*
X162662142Y-88532142D01*
X162805000Y-88603571D01*
X163090714Y-88603571D01*
X163233571Y-88532142D01*
X163376428Y-88389285D01*
X163447857Y-88103571D01*
X163447857Y-87603571D01*
X163376428Y-87317857D01*
X163233571Y-87175000D01*
X163090714Y-87103571D01*
X161805000Y-88603571D02*
X161805000Y-87103571D01*
X161305000Y-88175000D01*
X160805000Y-87103571D01*
X160805000Y-88603571D01*
X158947857Y-88603571D02*
X158947857Y-87103571D01*
X158590714Y-87103571D01*
X158376428Y-87175000D01*
X158233571Y-87317857D01*
X158162142Y-87460714D01*
X158090714Y-87746428D01*
X158090714Y-87960714D01*
X158162142Y-88246428D01*
X158233571Y-88389285D01*
X158376428Y-88532142D01*
X158590714Y-88603571D01*
X158947857Y-88603571D01*
X156876428Y-88532142D02*
X157019285Y-88603571D01*
X157305000Y-88603571D01*
X157447857Y-88532142D01*
X157519285Y-88389285D01*
X157519285Y-87817857D01*
X157447857Y-87675000D01*
X157305000Y-87603571D01*
X157019285Y-87603571D01*
X156876428Y-87675000D01*
X156805000Y-87817857D01*
X156805000Y-87960714D01*
X157519285Y-88103571D01*
X156305000Y-87603571D02*
X155947857Y-88603571D01*
X155590714Y-87603571D01*
X153876428Y-88603571D02*
X153876428Y-87103571D01*
X153376428Y-88175000D01*
X152876428Y-87103571D01*
X152876428Y-88603571D01*
X151947857Y-88603571D02*
X152090714Y-88532142D01*
X152162142Y-88460714D01*
X152233571Y-88317857D01*
X152233571Y-87889285D01*
X152162142Y-87746428D01*
X152090714Y-87675000D01*
X151947857Y-87603571D01*
X151733571Y-87603571D01*
X151590714Y-87675000D01*
X151519285Y-87746428D01*
X151447857Y-87889285D01*
X151447857Y-88317857D01*
X151519285Y-88460714D01*
X151590714Y-88532142D01*
X151733571Y-88603571D01*
X151947857Y-88603571D01*
X150162142Y-88603571D02*
X150162142Y-87103571D01*
X150162142Y-88532142D02*
X150305000Y-88603571D01*
X150590714Y-88603571D01*
X150733571Y-88532142D01*
X150805000Y-88460714D01*
X150876428Y-88317857D01*
X150876428Y-87889285D01*
X150805000Y-87746428D01*
X150733571Y-87675000D01*
X150590714Y-87603571D01*
X150305000Y-87603571D01*
X150162142Y-87675000D01*
X148805000Y-87603571D02*
X148805000Y-88603571D01*
X149447857Y-87603571D02*
X149447857Y-88389285D01*
X149376428Y-88532142D01*
X149233571Y-88603571D01*
X149019285Y-88603571D01*
X148876428Y-88532142D01*
X148805000Y-88460714D01*
X147876428Y-88603571D02*
X148019285Y-88532142D01*
X148090714Y-88389285D01*
X148090714Y-87103571D01*
X146733571Y-88532142D02*
X146876428Y-88603571D01*
X147162142Y-88603571D01*
X147305000Y-88532142D01*
X147376428Y-88389285D01*
X147376428Y-87817857D01*
X147305000Y-87675000D01*
X147162142Y-87603571D01*
X146876428Y-87603571D01*
X146733571Y-87675000D01*
X146662142Y-87817857D01*
X146662142Y-87960714D01*
X147376428Y-88103571D01*
X187090714Y-89653571D02*
X186733571Y-91153571D01*
X186447857Y-90082142D01*
X186162142Y-91153571D01*
X185805000Y-89653571D01*
X185233571Y-91153571D02*
X185233571Y-90153571D01*
X185233571Y-89653571D02*
X185305000Y-89725000D01*
X185233571Y-89796428D01*
X185162142Y-89725000D01*
X185233571Y-89653571D01*
X185233571Y-89796428D01*
X184019285Y-90367857D02*
X184519285Y-90367857D01*
X184519285Y-91153571D02*
X184519285Y-89653571D01*
X183805000Y-89653571D01*
X183233571Y-91153571D02*
X183233571Y-90153571D01*
X183233571Y-89653571D02*
X183305000Y-89725000D01*
X183233571Y-89796428D01*
X183162142Y-89725000D01*
X183233571Y-89653571D01*
X183233571Y-89796428D01*
X182447857Y-91082142D02*
X182447857Y-91153571D01*
X182519285Y-91296428D01*
X182590714Y-91367857D01*
X180162142Y-90367857D02*
X179947857Y-90439285D01*
X179876428Y-90510714D01*
X179805000Y-90653571D01*
X179805000Y-90867857D01*
X179876428Y-91010714D01*
X179947857Y-91082142D01*
X180090714Y-91153571D01*
X180662142Y-91153571D01*
X180662142Y-89653571D01*
X180162142Y-89653571D01*
X180019285Y-89725000D01*
X179947857Y-89796428D01*
X179876428Y-89939285D01*
X179876428Y-90082142D01*
X179947857Y-90225000D01*
X180019285Y-90296428D01*
X180162142Y-90367857D01*
X180662142Y-90367857D01*
X178947857Y-91153571D02*
X179090714Y-91082142D01*
X179162142Y-90939285D01*
X179162142Y-89653571D01*
X177733571Y-90153571D02*
X177733571Y-91153571D01*
X178376428Y-90153571D02*
X178376428Y-90939285D01*
X178305000Y-91082142D01*
X178162142Y-91153571D01*
X177947857Y-91153571D01*
X177805000Y-91082142D01*
X177733571Y-91010714D01*
X176447857Y-91082142D02*
X176590714Y-91153571D01*
X176876428Y-91153571D01*
X177019285Y-91082142D01*
X177090714Y-90939285D01*
X177090714Y-90367857D01*
X177019285Y-90225000D01*
X176876428Y-90153571D01*
X176590714Y-90153571D01*
X176447857Y-90225000D01*
X176376428Y-90367857D01*
X176376428Y-90510714D01*
X177090714Y-90653571D01*
X175947857Y-90153571D02*
X175376428Y-90153571D01*
X175733571Y-89653571D02*
X175733571Y-90939285D01*
X175662142Y-91082142D01*
X175519285Y-91153571D01*
X175376428Y-91153571D01*
X174662142Y-91153571D02*
X174805000Y-91082142D01*
X174876428Y-91010714D01*
X174947857Y-90867857D01*
X174947857Y-90439285D01*
X174876428Y-90296428D01*
X174805000Y-90225000D01*
X174662142Y-90153571D01*
X174447857Y-90153571D01*
X174305000Y-90225000D01*
X174233571Y-90296428D01*
X174162142Y-90439285D01*
X174162142Y-90867857D01*
X174233571Y-91010714D01*
X174305000Y-91082142D01*
X174447857Y-91153571D01*
X174662142Y-91153571D01*
X173305000Y-91153571D02*
X173447857Y-91082142D01*
X173519285Y-91010714D01*
X173590714Y-90867857D01*
X173590714Y-90439285D01*
X173519285Y-90296428D01*
X173447857Y-90225000D01*
X173305000Y-90153571D01*
X173090714Y-90153571D01*
X172947857Y-90225000D01*
X172876428Y-90296428D01*
X172805000Y-90439285D01*
X172805000Y-90867857D01*
X172876428Y-91010714D01*
X172947857Y-91082142D01*
X173090714Y-91153571D01*
X173305000Y-91153571D01*
X172376428Y-90153571D02*
X171805000Y-90153571D01*
X172162142Y-89653571D02*
X172162142Y-90939285D01*
X172090714Y-91082142D01*
X171947857Y-91153571D01*
X171805000Y-91153571D01*
X171305000Y-91153571D02*
X171305000Y-89653571D01*
X170662142Y-91153571D02*
X170662142Y-90367857D01*
X170733571Y-90225000D01*
X170876428Y-90153571D01*
X171090714Y-90153571D01*
X171233571Y-90225000D01*
X171305000Y-90296428D01*
X168162142Y-91153571D02*
X168162142Y-90367857D01*
X168233571Y-90225000D01*
X168376428Y-90153571D01*
X168662142Y-90153571D01*
X168805000Y-90225000D01*
X168162142Y-91082142D02*
X168305000Y-91153571D01*
X168662142Y-91153571D01*
X168805000Y-91082142D01*
X168876428Y-90939285D01*
X168876428Y-90796428D01*
X168805000Y-90653571D01*
X168662142Y-90582142D01*
X168305000Y-90582142D01*
X168162142Y-90510714D01*
X167447857Y-90153571D02*
X167447857Y-91153571D01*
X167447857Y-90296428D02*
X167376428Y-90225000D01*
X167233571Y-90153571D01*
X167019285Y-90153571D01*
X166876428Y-90225000D01*
X166805000Y-90367857D01*
X166805000Y-91153571D01*
X165447857Y-91153571D02*
X165447857Y-89653571D01*
X165447857Y-91082142D02*
X165590714Y-91153571D01*
X165876428Y-91153571D01*
X166019285Y-91082142D01*
X166090714Y-91010714D01*
X166162142Y-90867857D01*
X166162142Y-90439285D01*
X166090714Y-90296428D01*
X166019285Y-90225000D01*
X165876428Y-90153571D01*
X165590714Y-90153571D01*
X165447857Y-90225000D01*
X163376428Y-90296428D02*
X163519285Y-90225000D01*
X163590714Y-90153571D01*
X163662142Y-90010714D01*
X163662142Y-89939285D01*
X163590714Y-89796428D01*
X163519285Y-89725000D01*
X163376428Y-89653571D01*
X163090714Y-89653571D01*
X162947857Y-89725000D01*
X162876428Y-89796428D01*
X162805000Y-89939285D01*
X162805000Y-90010714D01*
X162876428Y-90153571D01*
X162947857Y-90225000D01*
X163090714Y-90296428D01*
X163376428Y-90296428D01*
X163519285Y-90367857D01*
X163590714Y-90439285D01*
X163662142Y-90582142D01*
X163662142Y-90867857D01*
X163590714Y-91010714D01*
X163519285Y-91082142D01*
X163376428Y-91153571D01*
X163090714Y-91153571D01*
X162947857Y-91082142D01*
X162876428Y-91010714D01*
X162805000Y-90867857D01*
X162805000Y-90582142D01*
X162876428Y-90439285D01*
X162947857Y-90367857D01*
X163090714Y-90296428D01*
X161090714Y-89796428D02*
X161019285Y-89725000D01*
X160876428Y-89653571D01*
X160519285Y-89653571D01*
X160376428Y-89725000D01*
X160305000Y-89796428D01*
X160233571Y-89939285D01*
X160233571Y-90082142D01*
X160305000Y-90296428D01*
X161162142Y-91153571D01*
X160233571Y-91153571D01*
X159662142Y-90725000D02*
X158947857Y-90725000D01*
X159805000Y-91153571D02*
X159305000Y-89653571D01*
X158805000Y-91153571D01*
X157162142Y-91153571D02*
X157162142Y-89653571D01*
X156590714Y-89653571D01*
X156447857Y-89725000D01*
X156376428Y-89796428D01*
X156305000Y-89939285D01*
X156305000Y-90153571D01*
X156376428Y-90296428D01*
X156447857Y-90367857D01*
X156590714Y-90439285D01*
X157162142Y-90439285D01*
X155805000Y-89653571D02*
X155447857Y-91153571D01*
X155162142Y-90082142D01*
X154876428Y-91153571D01*
X154519285Y-89653571D01*
X153947857Y-91153571D02*
X153947857Y-89653571D01*
X153447857Y-90725000D01*
X152947857Y-89653571D01*
X152947857Y-91153571D01*
X150805000Y-89653571D02*
X150519285Y-89653571D01*
X150376428Y-89725000D01*
X150233571Y-89867857D01*
X150162142Y-90153571D01*
X150162142Y-90653571D01*
X150233571Y-90939285D01*
X150376428Y-91082142D01*
X150519285Y-91153571D01*
X150805000Y-91153571D01*
X150947857Y-91082142D01*
X151090714Y-90939285D01*
X151162142Y-90653571D01*
X151162142Y-90153571D01*
X151090714Y-89867857D01*
X150947857Y-89725000D01*
X150805000Y-89653571D01*
X148876428Y-90153571D02*
X148876428Y-91153571D01*
X149519285Y-90153571D02*
X149519285Y-90939285D01*
X149447857Y-91082142D01*
X149305000Y-91153571D01*
X149090714Y-91153571D01*
X148947857Y-91082142D01*
X148876428Y-91010714D01*
X148376428Y-90153571D02*
X147805000Y-90153571D01*
X148162142Y-89653571D02*
X148162142Y-90939285D01*
X148090714Y-91082142D01*
X147947857Y-91153571D01*
X147805000Y-91153571D01*
X147305000Y-90153571D02*
X147305000Y-91653571D01*
X147305000Y-90225000D02*
X147162142Y-90153571D01*
X146876428Y-90153571D01*
X146733571Y-90225000D01*
X146662142Y-90296428D01*
X146590714Y-90439285D01*
X146590714Y-90867857D01*
X146662142Y-91010714D01*
X146733571Y-91082142D01*
X146876428Y-91153571D01*
X147162142Y-91153571D01*
X147305000Y-91082142D01*
X145305000Y-90153571D02*
X145305000Y-91153571D01*
X145947857Y-90153571D02*
X145947857Y-90939285D01*
X145876428Y-91082142D01*
X145733571Y-91153571D01*
X145519285Y-91153571D01*
X145376428Y-91082142D01*
X145305000Y-91010714D01*
X144805000Y-90153571D02*
X144233571Y-90153571D01*
X144590714Y-89653571D02*
X144590714Y-90939285D01*
X144519285Y-91082142D01*
X144376428Y-91153571D01*
X144233571Y-91153571D01*
X143805000Y-91082142D02*
X143662142Y-91153571D01*
X143376428Y-91153571D01*
X143233571Y-91082142D01*
X143162142Y-90939285D01*
X143162142Y-90867857D01*
X143233571Y-90725000D01*
X143376428Y-90653571D01*
X143590714Y-90653571D01*
X143733571Y-90582142D01*
X143805000Y-90439285D01*
X143805000Y-90367857D01*
X143733571Y-90225000D01*
X143590714Y-90153571D01*
X143376428Y-90153571D01*
X143233571Y-90225000D01*
X187019285Y-93632142D02*
X186805000Y-93703571D01*
X186447857Y-93703571D01*
X186305000Y-93632142D01*
X186233571Y-93560714D01*
X186162142Y-93417857D01*
X186162142Y-93275000D01*
X186233571Y-93132142D01*
X186305000Y-93060714D01*
X186447857Y-92989285D01*
X186733571Y-92917857D01*
X186876428Y-92846428D01*
X186947857Y-92775000D01*
X187019285Y-92632142D01*
X187019285Y-92489285D01*
X186947857Y-92346428D01*
X186876428Y-92275000D01*
X186733571Y-92203571D01*
X186376428Y-92203571D01*
X186162142Y-92275000D01*
X184947857Y-93632142D02*
X185090714Y-93703571D01*
X185376428Y-93703571D01*
X185519285Y-93632142D01*
X185590714Y-93489285D01*
X185590714Y-92917857D01*
X185519285Y-92775000D01*
X185376428Y-92703571D01*
X185090714Y-92703571D01*
X184947857Y-92775000D01*
X184876428Y-92917857D01*
X184876428Y-93060714D01*
X185590714Y-93203571D01*
X183662142Y-93632142D02*
X183805000Y-93703571D01*
X184090714Y-93703571D01*
X184233571Y-93632142D01*
X184305000Y-93489285D01*
X184305000Y-92917857D01*
X184233571Y-92775000D01*
X184090714Y-92703571D01*
X183805000Y-92703571D01*
X183662142Y-92775000D01*
X183590714Y-92917857D01*
X183590714Y-93060714D01*
X184305000Y-93203571D01*
X181805000Y-93703571D02*
X181805000Y-92203571D01*
X181162142Y-93703571D02*
X181162142Y-92917857D01*
X181233571Y-92775000D01*
X181376428Y-92703571D01*
X181590714Y-92703571D01*
X181733571Y-92775000D01*
X181805000Y-92846428D01*
X180662142Y-92703571D02*
X180090714Y-92703571D01*
X180447857Y-92203571D02*
X180447857Y-93489285D01*
X180376428Y-93632142D01*
X180233571Y-93703571D01*
X180090714Y-93703571D01*
X179805000Y-92703571D02*
X179233571Y-92703571D01*
X179590714Y-92203571D02*
X179590714Y-93489285D01*
X179519285Y-93632142D01*
X179376428Y-93703571D01*
X179233571Y-93703571D01*
X178733571Y-92703571D02*
X178733571Y-94203571D01*
X178733571Y-92775000D02*
X178590714Y-92703571D01*
X178305000Y-92703571D01*
X178162142Y-92775000D01*
X178090714Y-92846428D01*
X178019285Y-92989285D01*
X178019285Y-93417857D01*
X178090714Y-93560714D01*
X178162142Y-93632142D01*
X178305000Y-93703571D01*
X178590714Y-93703571D01*
X178733571Y-93632142D01*
X177376428Y-93560714D02*
X177305000Y-93632142D01*
X177376428Y-93703571D01*
X177447857Y-93632142D01*
X177376428Y-93560714D01*
X177376428Y-93703571D01*
X177376428Y-92775000D02*
X177305000Y-92846428D01*
X177376428Y-92917857D01*
X177447857Y-92846428D01*
X177376428Y-92775000D01*
X177376428Y-92917857D01*
X175590714Y-92132142D02*
X176876428Y-94060714D01*
X174019285Y-92132142D02*
X175305000Y-94060714D01*
X173662142Y-92703571D02*
X173305000Y-93703571D01*
X172947857Y-92703571D01*
X172376428Y-93703571D02*
X172376428Y-92703571D01*
X172376428Y-92203571D02*
X172447857Y-92275000D01*
X172376428Y-92346428D01*
X172305000Y-92275000D01*
X172376428Y-92203571D01*
X172376428Y-92346428D01*
X171662142Y-92703571D02*
X171662142Y-93703571D01*
X171662142Y-92846428D02*
X171590714Y-92775000D01*
X171447857Y-92703571D01*
X171233571Y-92703571D01*
X171090714Y-92775000D01*
X171019285Y-92917857D01*
X171019285Y-93703571D01*
X170519285Y-92703571D02*
X169947857Y-92703571D01*
X170305000Y-92203571D02*
X170305000Y-93489285D01*
X170233571Y-93632142D01*
X170090714Y-93703571D01*
X169947857Y-93703571D01*
X169233571Y-93703571D02*
X169376428Y-93632142D01*
X169447857Y-93489285D01*
X169447857Y-92203571D01*
X168019285Y-93703571D02*
X168019285Y-92917857D01*
X168090714Y-92775000D01*
X168233571Y-92703571D01*
X168519285Y-92703571D01*
X168662142Y-92775000D01*
X168019285Y-93632142D02*
X168162142Y-93703571D01*
X168519285Y-93703571D01*
X168662142Y-93632142D01*
X168733571Y-93489285D01*
X168733571Y-93346428D01*
X168662142Y-93203571D01*
X168519285Y-93132142D01*
X168162142Y-93132142D01*
X168019285Y-93060714D01*
X167305000Y-93703571D02*
X167305000Y-92203571D01*
X167305000Y-92775000D02*
X167162142Y-92703571D01*
X166876428Y-92703571D01*
X166733571Y-92775000D01*
X166662142Y-92846428D01*
X166590714Y-92989285D01*
X166590714Y-93417857D01*
X166662142Y-93560714D01*
X166733571Y-93632142D01*
X166876428Y-93703571D01*
X167162142Y-93703571D01*
X167305000Y-93632142D01*
X166019285Y-93632142D02*
X165876428Y-93703571D01*
X165590714Y-93703571D01*
X165447857Y-93632142D01*
X165376428Y-93489285D01*
X165376428Y-93417857D01*
X165447857Y-93275000D01*
X165590714Y-93203571D01*
X165805000Y-93203571D01*
X165947857Y-93132142D01*
X166019285Y-92989285D01*
X166019285Y-92917857D01*
X165947857Y-92775000D01*
X165805000Y-92703571D01*
X165590714Y-92703571D01*
X165447857Y-92775000D01*
X164733571Y-93560714D02*
X164662142Y-93632142D01*
X164733571Y-93703571D01*
X164805000Y-93632142D01*
X164733571Y-93560714D01*
X164733571Y-93703571D01*
X163376428Y-93632142D02*
X163519285Y-93703571D01*
X163805000Y-93703571D01*
X163947857Y-93632142D01*
X164019285Y-93560714D01*
X164090714Y-93417857D01*
X164090714Y-92989285D01*
X164019285Y-92846428D01*
X163947857Y-92775000D01*
X163805000Y-92703571D01*
X163519285Y-92703571D01*
X163376428Y-92775000D01*
X162519285Y-93703571D02*
X162662142Y-93632142D01*
X162733571Y-93560714D01*
X162805000Y-93417857D01*
X162805000Y-92989285D01*
X162733571Y-92846428D01*
X162662142Y-92775000D01*
X162519285Y-92703571D01*
X162305000Y-92703571D01*
X162162142Y-92775000D01*
X162090714Y-92846428D01*
X162019285Y-92989285D01*
X162019285Y-93417857D01*
X162090714Y-93560714D01*
X162162142Y-93632142D01*
X162305000Y-93703571D01*
X162519285Y-93703571D01*
X161376428Y-93703571D02*
X161376428Y-92703571D01*
X161376428Y-92846428D02*
X161305000Y-92775000D01*
X161162142Y-92703571D01*
X160947857Y-92703571D01*
X160805000Y-92775000D01*
X160733571Y-92917857D01*
X160733571Y-93703571D01*
X160733571Y-92917857D02*
X160662142Y-92775000D01*
X160519285Y-92703571D01*
X160305000Y-92703571D01*
X160162142Y-92775000D01*
X160090714Y-92917857D01*
X160090714Y-93703571D01*
X158447857Y-92703571D02*
X157876428Y-92703571D01*
X158233571Y-93703571D02*
X158233571Y-92417857D01*
X158162142Y-92275000D01*
X158019285Y-92203571D01*
X157876428Y-92203571D01*
X157162142Y-93703571D02*
X157305000Y-93632142D01*
X157376428Y-93560714D01*
X157447857Y-93417857D01*
X157447857Y-92989285D01*
X157376428Y-92846428D01*
X157305000Y-92775000D01*
X157162142Y-92703571D01*
X156947857Y-92703571D01*
X156805000Y-92775000D01*
X156733571Y-92846428D01*
X156662142Y-92989285D01*
X156662142Y-93417857D01*
X156733571Y-93560714D01*
X156805000Y-93632142D01*
X156947857Y-93703571D01*
X157162142Y-93703571D01*
X156019285Y-93703571D02*
X156019285Y-92703571D01*
X156019285Y-92989285D02*
X155947857Y-92846428D01*
X155876428Y-92775000D01*
X155733571Y-92703571D01*
X155590714Y-92703571D01*
X187019285Y-96182142D02*
X186876428Y-96253571D01*
X186590714Y-96253571D01*
X186447857Y-96182142D01*
X186376428Y-96039285D01*
X186376428Y-95967857D01*
X186447857Y-95825000D01*
X186590714Y-95753571D01*
X186805000Y-95753571D01*
X186947857Y-95682142D01*
X187019285Y-95539285D01*
X187019285Y-95467857D01*
X186947857Y-95325000D01*
X186805000Y-95253571D01*
X186590714Y-95253571D01*
X186447857Y-95325000D01*
X185090714Y-96182142D02*
X185233571Y-96253571D01*
X185519285Y-96253571D01*
X185662142Y-96182142D01*
X185733571Y-96110714D01*
X185805000Y-95967857D01*
X185805000Y-95539285D01*
X185733571Y-95396428D01*
X185662142Y-95325000D01*
X185519285Y-95253571D01*
X185233571Y-95253571D01*
X185090714Y-95325000D01*
X184447857Y-96253571D02*
X184447857Y-94753571D01*
X183805000Y-96253571D02*
X183805000Y-95467857D01*
X183876428Y-95325000D01*
X184019285Y-95253571D01*
X184233571Y-95253571D01*
X184376428Y-95325000D01*
X184447857Y-95396428D01*
X182519285Y-96182142D02*
X182662142Y-96253571D01*
X182947857Y-96253571D01*
X183090714Y-96182142D01*
X183162142Y-96039285D01*
X183162142Y-95467857D01*
X183090714Y-95325000D01*
X182947857Y-95253571D01*
X182662142Y-95253571D01*
X182519285Y-95325000D01*
X182447857Y-95467857D01*
X182447857Y-95610714D01*
X183162142Y-95753571D01*
X181805000Y-96253571D02*
X181805000Y-95253571D01*
X181805000Y-95396428D02*
X181733571Y-95325000D01*
X181590714Y-95253571D01*
X181376428Y-95253571D01*
X181233571Y-95325000D01*
X181162142Y-95467857D01*
X181162142Y-96253571D01*
X181162142Y-95467857D02*
X181090714Y-95325000D01*
X180947857Y-95253571D01*
X180733571Y-95253571D01*
X180590714Y-95325000D01*
X180519285Y-95467857D01*
X180519285Y-96253571D01*
X179162142Y-96253571D02*
X179162142Y-95467857D01*
X179233571Y-95325000D01*
X179376428Y-95253571D01*
X179662142Y-95253571D01*
X179805000Y-95325000D01*
X179162142Y-96182142D02*
X179305000Y-96253571D01*
X179662142Y-96253571D01*
X179805000Y-96182142D01*
X179876428Y-96039285D01*
X179876428Y-95896428D01*
X179805000Y-95753571D01*
X179662142Y-95682142D01*
X179305000Y-95682142D01*
X179162142Y-95610714D01*
X178662142Y-95253571D02*
X178090714Y-95253571D01*
X178447857Y-94753571D02*
X178447857Y-96039285D01*
X178376428Y-96182142D01*
X178233571Y-96253571D01*
X178090714Y-96253571D01*
X177590714Y-96253571D02*
X177590714Y-95253571D01*
X177590714Y-94753571D02*
X177662142Y-94825000D01*
X177590714Y-94896428D01*
X177519285Y-94825000D01*
X177590714Y-94753571D01*
X177590714Y-94896428D01*
X176233571Y-96182142D02*
X176376428Y-96253571D01*
X176662142Y-96253571D01*
X176805000Y-96182142D01*
X176876428Y-96110714D01*
X176947857Y-95967857D01*
X176947857Y-95539285D01*
X176876428Y-95396428D01*
X176805000Y-95325000D01*
X176662142Y-95253571D01*
X176376428Y-95253571D01*
X176233571Y-95325000D01*
X173805000Y-96253571D02*
X173805000Y-95467857D01*
X173876428Y-95325000D01*
X174019285Y-95253571D01*
X174305000Y-95253571D01*
X174447857Y-95325000D01*
X173805000Y-96182142D02*
X173947857Y-96253571D01*
X174305000Y-96253571D01*
X174447857Y-96182142D01*
X174519285Y-96039285D01*
X174519285Y-95896428D01*
X174447857Y-95753571D01*
X174305000Y-95682142D01*
X173947857Y-95682142D01*
X173805000Y-95610714D01*
X173090714Y-95253571D02*
X173090714Y-96253571D01*
X173090714Y-95396428D02*
X173019285Y-95325000D01*
X172876428Y-95253571D01*
X172662142Y-95253571D01*
X172519285Y-95325000D01*
X172447857Y-95467857D01*
X172447857Y-96253571D01*
X171090714Y-96253571D02*
X171090714Y-94753571D01*
X171090714Y-96182142D02*
X171233571Y-96253571D01*
X171519285Y-96253571D01*
X171662142Y-96182142D01*
X171733571Y-96110714D01*
X171805000Y-95967857D01*
X171805000Y-95539285D01*
X171733571Y-95396428D01*
X171662142Y-95325000D01*
X171519285Y-95253571D01*
X171233571Y-95253571D01*
X171090714Y-95325000D01*
X168590714Y-95253571D02*
X168590714Y-96253571D01*
X169233571Y-95253571D02*
X169233571Y-96039285D01*
X169162142Y-96182142D01*
X169019285Y-96253571D01*
X168805000Y-96253571D01*
X168662142Y-96182142D01*
X168590714Y-96110714D01*
X167947857Y-96182142D02*
X167805000Y-96253571D01*
X167519285Y-96253571D01*
X167376428Y-96182142D01*
X167305000Y-96039285D01*
X167305000Y-95967857D01*
X167376428Y-95825000D01*
X167519285Y-95753571D01*
X167733571Y-95753571D01*
X167876428Y-95682142D01*
X167947857Y-95539285D01*
X167947857Y-95467857D01*
X167876428Y-95325000D01*
X167733571Y-95253571D01*
X167519285Y-95253571D01*
X167376428Y-95325000D01*
X166019285Y-96253571D02*
X166019285Y-95467857D01*
X166090714Y-95325000D01*
X166233571Y-95253571D01*
X166519285Y-95253571D01*
X166662142Y-95325000D01*
X166019285Y-96182142D02*
X166162142Y-96253571D01*
X166519285Y-96253571D01*
X166662142Y-96182142D01*
X166733571Y-96039285D01*
X166733571Y-95896428D01*
X166662142Y-95753571D01*
X166519285Y-95682142D01*
X166162142Y-95682142D01*
X166019285Y-95610714D01*
X164662142Y-95253571D02*
X164662142Y-96467857D01*
X164733571Y-96610714D01*
X164805000Y-96682142D01*
X164947857Y-96753571D01*
X165162142Y-96753571D01*
X165305000Y-96682142D01*
X164662142Y-96182142D02*
X164805000Y-96253571D01*
X165090714Y-96253571D01*
X165233571Y-96182142D01*
X165305000Y-96110714D01*
X165376428Y-95967857D01*
X165376428Y-95539285D01*
X165305000Y-95396428D01*
X165233571Y-95325000D01*
X165090714Y-95253571D01*
X164805000Y-95253571D01*
X164662142Y-95325000D01*
X163376428Y-96182142D02*
X163519285Y-96253571D01*
X163805000Y-96253571D01*
X163947857Y-96182142D01*
X164019285Y-96039285D01*
X164019285Y-95467857D01*
X163947857Y-95325000D01*
X163805000Y-95253571D01*
X163519285Y-95253571D01*
X163376428Y-95325000D01*
X163305000Y-95467857D01*
X163305000Y-95610714D01*
X164019285Y-95753571D01*
X161519285Y-96253571D02*
X161519285Y-95253571D01*
X161519285Y-94753571D02*
X161590714Y-94825000D01*
X161519285Y-94896428D01*
X161447857Y-94825000D01*
X161519285Y-94753571D01*
X161519285Y-94896428D01*
X160805000Y-95253571D02*
X160805000Y-96253571D01*
X160805000Y-95396428D02*
X160733571Y-95325000D01*
X160590714Y-95253571D01*
X160376428Y-95253571D01*
X160233571Y-95325000D01*
X160162142Y-95467857D01*
X160162142Y-96253571D01*
X159662142Y-95253571D02*
X159090714Y-95253571D01*
X159447857Y-96253571D02*
X159447857Y-94967857D01*
X159376428Y-94825000D01*
X159233571Y-94753571D01*
X159090714Y-94753571D01*
X158376428Y-96253571D02*
X158519285Y-96182142D01*
X158590714Y-96110714D01*
X158662142Y-95967857D01*
X158662142Y-95539285D01*
X158590714Y-95396428D01*
X158519285Y-95325000D01*
X158376428Y-95253571D01*
X158162142Y-95253571D01*
X158019285Y-95325000D01*
X157947857Y-95396428D01*
X157876428Y-95539285D01*
X157876428Y-95967857D01*
X157947857Y-96110714D01*
X158019285Y-96182142D01*
X158162142Y-96253571D01*
X158376428Y-96253571D01*
X130623571Y-114475000D02*
X130766428Y-114403571D01*
X130980714Y-114403571D01*
X131195000Y-114475000D01*
X131337857Y-114617857D01*
X131409285Y-114760714D01*
X131480714Y-115046428D01*
X131480714Y-115260714D01*
X131409285Y-115546428D01*
X131337857Y-115689285D01*
X131195000Y-115832142D01*
X130980714Y-115903571D01*
X130837857Y-115903571D01*
X130623571Y-115832142D01*
X130552142Y-115760714D01*
X130552142Y-115260714D01*
X130837857Y-115260714D01*
X129909285Y-115903571D02*
X129909285Y-114403571D01*
X129052142Y-115903571D01*
X129052142Y-114403571D01*
X128337857Y-115903571D02*
X128337857Y-114403571D01*
X127980714Y-114403571D01*
X127766428Y-114475000D01*
X127623571Y-114617857D01*
X127552142Y-114760714D01*
X127480714Y-115046428D01*
X127480714Y-115260714D01*
X127552142Y-115546428D01*
X127623571Y-115689285D01*
X127766428Y-115832142D01*
X127980714Y-115903571D01*
X128337857Y-115903571D01*
X170266428Y-116953571D02*
X170266428Y-118167857D01*
X170195000Y-118310714D01*
X170123571Y-118382142D01*
X169980714Y-118453571D01*
X169695000Y-118453571D01*
X169552142Y-118382142D01*
X169480714Y-118310714D01*
X169409285Y-118167857D01*
X169409285Y-116953571D01*
X168766428Y-118382142D02*
X168623571Y-118453571D01*
X168337857Y-118453571D01*
X168195000Y-118382142D01*
X168123571Y-118239285D01*
X168123571Y-118167857D01*
X168195000Y-118025000D01*
X168337857Y-117953571D01*
X168552142Y-117953571D01*
X168695000Y-117882142D01*
X168766428Y-117739285D01*
X168766428Y-117667857D01*
X168695000Y-117525000D01*
X168552142Y-117453571D01*
X168337857Y-117453571D01*
X168195000Y-117525000D01*
X166909285Y-118382142D02*
X167052142Y-118453571D01*
X167337857Y-118453571D01*
X167480714Y-118382142D01*
X167552142Y-118239285D01*
X167552142Y-117667857D01*
X167480714Y-117525000D01*
X167337857Y-117453571D01*
X167052142Y-117453571D01*
X166909285Y-117525000D01*
X166837857Y-117667857D01*
X166837857Y-117810714D01*
X167552142Y-117953571D01*
X164480714Y-118382142D02*
X164623571Y-118453571D01*
X164909285Y-118453571D01*
X165052142Y-118382142D01*
X165123571Y-118239285D01*
X165123571Y-117667857D01*
X165052142Y-117525000D01*
X164909285Y-117453571D01*
X164623571Y-117453571D01*
X164480714Y-117525000D01*
X164409285Y-117667857D01*
X164409285Y-117810714D01*
X165123571Y-117953571D01*
X163909285Y-118453571D02*
X163123571Y-117453571D01*
X163909285Y-117453571D02*
X163123571Y-118453571D01*
X162766428Y-117453571D02*
X162195000Y-117453571D01*
X162552142Y-116953571D02*
X162552142Y-118239285D01*
X162480714Y-118382142D01*
X162337857Y-118453571D01*
X162195000Y-118453571D01*
X161123571Y-118382142D02*
X161266428Y-118453571D01*
X161552142Y-118453571D01*
X161695000Y-118382142D01*
X161766428Y-118239285D01*
X161766428Y-117667857D01*
X161695000Y-117525000D01*
X161552142Y-117453571D01*
X161266428Y-117453571D01*
X161123571Y-117525000D01*
X161052142Y-117667857D01*
X161052142Y-117810714D01*
X161766428Y-117953571D01*
X160409285Y-118453571D02*
X160409285Y-117453571D01*
X160409285Y-117739285D02*
X160337857Y-117596428D01*
X160266428Y-117525000D01*
X160123571Y-117453571D01*
X159980714Y-117453571D01*
X159480714Y-117453571D02*
X159480714Y-118453571D01*
X159480714Y-117596428D02*
X159409285Y-117525000D01*
X159266428Y-117453571D01*
X159052142Y-117453571D01*
X158909285Y-117525000D01*
X158837857Y-117667857D01*
X158837857Y-118453571D01*
X157480714Y-118453571D02*
X157480714Y-117667857D01*
X157552142Y-117525000D01*
X157695000Y-117453571D01*
X157980714Y-117453571D01*
X158123571Y-117525000D01*
X157480714Y-118382142D02*
X157623571Y-118453571D01*
X157980714Y-118453571D01*
X158123571Y-118382142D01*
X158195000Y-118239285D01*
X158195000Y-118096428D01*
X158123571Y-117953571D01*
X157980714Y-117882142D01*
X157623571Y-117882142D01*
X157480714Y-117810714D01*
X156552142Y-118453571D02*
X156695000Y-118382142D01*
X156766428Y-118239285D01*
X156766428Y-116953571D01*
X154195000Y-117453571D02*
X154195000Y-118667857D01*
X154266428Y-118810714D01*
X154337857Y-118882142D01*
X154480714Y-118953571D01*
X154695000Y-118953571D01*
X154837857Y-118882142D01*
X154195000Y-118382142D02*
X154337857Y-118453571D01*
X154623571Y-118453571D01*
X154766428Y-118382142D01*
X154837857Y-118310714D01*
X154909285Y-118167857D01*
X154909285Y-117739285D01*
X154837857Y-117596428D01*
X154766428Y-117525000D01*
X154623571Y-117453571D01*
X154337857Y-117453571D01*
X154195000Y-117525000D01*
X153480714Y-118453571D02*
X153480714Y-117453571D01*
X153480714Y-117739285D02*
X153409285Y-117596428D01*
X153337857Y-117525000D01*
X153195000Y-117453571D01*
X153052142Y-117453571D01*
X152337857Y-118453571D02*
X152480714Y-118382142D01*
X152552142Y-118310714D01*
X152623571Y-118167857D01*
X152623571Y-117739285D01*
X152552142Y-117596428D01*
X152480714Y-117525000D01*
X152337857Y-117453571D01*
X152123571Y-117453571D01*
X151980714Y-117525000D01*
X151909285Y-117596428D01*
X151837857Y-117739285D01*
X151837857Y-118167857D01*
X151909285Y-118310714D01*
X151980714Y-118382142D01*
X152123571Y-118453571D01*
X152337857Y-118453571D01*
X150552142Y-117453571D02*
X150552142Y-118453571D01*
X151195000Y-117453571D02*
X151195000Y-118239285D01*
X151123571Y-118382142D01*
X150980714Y-118453571D01*
X150766428Y-118453571D01*
X150623571Y-118382142D01*
X150552142Y-118310714D01*
X149837857Y-117453571D02*
X149837857Y-118453571D01*
X149837857Y-117596428D02*
X149766428Y-117525000D01*
X149623571Y-117453571D01*
X149409285Y-117453571D01*
X149266428Y-117525000D01*
X149195000Y-117667857D01*
X149195000Y-118453571D01*
X147837857Y-118453571D02*
X147837857Y-116953571D01*
X147837857Y-118382142D02*
X147980714Y-118453571D01*
X148266428Y-118453571D01*
X148409285Y-118382142D01*
X148480714Y-118310714D01*
X148552142Y-118167857D01*
X148552142Y-117739285D01*
X148480714Y-117596428D01*
X148409285Y-117525000D01*
X148266428Y-117453571D01*
X147980714Y-117453571D01*
X147837857Y-117525000D01*
X146195000Y-117453571D02*
X145623571Y-117453571D01*
X145980714Y-118453571D02*
X145980714Y-117167857D01*
X145909285Y-117025000D01*
X145766428Y-116953571D01*
X145623571Y-116953571D01*
X144909285Y-118453571D02*
X145052142Y-118382142D01*
X145123571Y-118310714D01*
X145195000Y-118167857D01*
X145195000Y-117739285D01*
X145123571Y-117596428D01*
X145052142Y-117525000D01*
X144909285Y-117453571D01*
X144695000Y-117453571D01*
X144552142Y-117525000D01*
X144480714Y-117596428D01*
X144409285Y-117739285D01*
X144409285Y-118167857D01*
X144480714Y-118310714D01*
X144552142Y-118382142D01*
X144695000Y-118453571D01*
X144909285Y-118453571D01*
X143766428Y-118453571D02*
X143766428Y-117453571D01*
X143766428Y-117739285D02*
X143695000Y-117596428D01*
X143623571Y-117525000D01*
X143480714Y-117453571D01*
X143337857Y-117453571D01*
X141052142Y-118382142D02*
X141195000Y-118453571D01*
X141480714Y-118453571D01*
X141623571Y-118382142D01*
X141695000Y-118310714D01*
X141766428Y-118167857D01*
X141766428Y-117739285D01*
X141695000Y-117596428D01*
X141623571Y-117525000D01*
X141480714Y-117453571D01*
X141195000Y-117453571D01*
X141052142Y-117525000D01*
X139766428Y-117453571D02*
X139766428Y-118453571D01*
X140409285Y-117453571D02*
X140409285Y-118239285D01*
X140337857Y-118382142D01*
X140195000Y-118453571D01*
X139980714Y-118453571D01*
X139837857Y-118382142D01*
X139766428Y-118310714D01*
X139052142Y-118453571D02*
X139052142Y-117453571D01*
X139052142Y-117739285D02*
X138980714Y-117596428D01*
X138909285Y-117525000D01*
X138766428Y-117453571D01*
X138623571Y-117453571D01*
X138123571Y-118453571D02*
X138123571Y-117453571D01*
X138123571Y-117739285D02*
X138052142Y-117596428D01*
X137980714Y-117525000D01*
X137837857Y-117453571D01*
X137695000Y-117453571D01*
X136623571Y-118382142D02*
X136766428Y-118453571D01*
X137052142Y-118453571D01*
X137195000Y-118382142D01*
X137266428Y-118239285D01*
X137266428Y-117667857D01*
X137195000Y-117525000D01*
X137052142Y-117453571D01*
X136766428Y-117453571D01*
X136623571Y-117525000D01*
X136552142Y-117667857D01*
X136552142Y-117810714D01*
X137266428Y-117953571D01*
X135909285Y-117453571D02*
X135909285Y-118453571D01*
X135909285Y-117596428D02*
X135837857Y-117525000D01*
X135695000Y-117453571D01*
X135480714Y-117453571D01*
X135337857Y-117525000D01*
X135266428Y-117667857D01*
X135266428Y-118453571D01*
X134766428Y-117453571D02*
X134195000Y-117453571D01*
X134552142Y-116953571D02*
X134552142Y-118239285D01*
X134480714Y-118382142D01*
X134337857Y-118453571D01*
X134195000Y-118453571D01*
X132552142Y-117453571D02*
X131409285Y-117882142D01*
X132552142Y-118310714D01*
X128909285Y-117453571D02*
X128909285Y-118453571D01*
X129266428Y-116882142D02*
X129623571Y-117953571D01*
X128695000Y-117953571D01*
X128195000Y-118025000D02*
X127480714Y-118025000D01*
X128337857Y-118453571D02*
X127837857Y-116953571D01*
X127337857Y-118453571D01*
X137552142Y-112178571D02*
X137552142Y-110678571D01*
X136552142Y-110678571D02*
X136266428Y-110678571D01*
X136123571Y-110750000D01*
X135980714Y-110892857D01*
X135909285Y-111178571D01*
X135909285Y-111678571D01*
X135980714Y-111964285D01*
X136123571Y-112107142D01*
X136266428Y-112178571D01*
X136552142Y-112178571D01*
X136695000Y-112107142D01*
X136837857Y-111964285D01*
X136909285Y-111678571D01*
X136909285Y-111178571D01*
X136837857Y-110892857D01*
X136695000Y-110750000D01*
X136552142Y-110678571D01*
X134480714Y-112178571D02*
X135337857Y-112178571D01*
X134909285Y-112178571D02*
X134909285Y-110678571D01*
X135052142Y-110892857D01*
X135195000Y-111035714D01*
X135337857Y-111107142D01*
X133766428Y-112178571D02*
X133480714Y-112178571D01*
X133337857Y-112107142D01*
X133266428Y-112035714D01*
X133123571Y-111821428D01*
X133052142Y-111535714D01*
X133052142Y-110964285D01*
X133123571Y-110821428D01*
X133195000Y-110750000D01*
X133337857Y-110678571D01*
X133623571Y-110678571D01*
X133766428Y-110750000D01*
X133837857Y-110821428D01*
X133909285Y-110964285D01*
X133909285Y-111321428D01*
X133837857Y-111464285D01*
X133766428Y-111535714D01*
X133623571Y-111607142D01*
X133337857Y-111607142D01*
X133195000Y-111535714D01*
X133123571Y-111464285D01*
X133052142Y-111321428D01*
X131266428Y-111607142D02*
X130123571Y-111607142D01*
X128409285Y-110678571D02*
X127409285Y-110678571D01*
X128052142Y-112178571D01*
X137552142Y-108678571D02*
X137552142Y-107178571D01*
X136552142Y-107178571D02*
X136266428Y-107178571D01*
X136123571Y-107250000D01*
X135980714Y-107392857D01*
X135909285Y-107678571D01*
X135909285Y-108178571D01*
X135980714Y-108464285D01*
X136123571Y-108607142D01*
X136266428Y-108678571D01*
X136552142Y-108678571D01*
X136695000Y-108607142D01*
X136837857Y-108464285D01*
X136909285Y-108178571D01*
X136909285Y-107678571D01*
X136837857Y-107392857D01*
X136695000Y-107250000D01*
X136552142Y-107178571D01*
X134480714Y-108678571D02*
X135337857Y-108678571D01*
X134909285Y-108678571D02*
X134909285Y-107178571D01*
X135052142Y-107392857D01*
X135195000Y-107535714D01*
X135337857Y-107607142D01*
X133623571Y-107821428D02*
X133766428Y-107750000D01*
X133837857Y-107678571D01*
X133909285Y-107535714D01*
X133909285Y-107464285D01*
X133837857Y-107321428D01*
X133766428Y-107250000D01*
X133623571Y-107178571D01*
X133337857Y-107178571D01*
X133195000Y-107250000D01*
X133123571Y-107321428D01*
X133052142Y-107464285D01*
X133052142Y-107535714D01*
X133123571Y-107678571D01*
X133195000Y-107750000D01*
X133337857Y-107821428D01*
X133623571Y-107821428D01*
X133766428Y-107892857D01*
X133837857Y-107964285D01*
X133909285Y-108107142D01*
X133909285Y-108392857D01*
X133837857Y-108535714D01*
X133766428Y-108607142D01*
X133623571Y-108678571D01*
X133337857Y-108678571D01*
X133195000Y-108607142D01*
X133123571Y-108535714D01*
X133052142Y-108392857D01*
X133052142Y-108107142D01*
X133123571Y-107964285D01*
X133195000Y-107892857D01*
X133337857Y-107821428D01*
X131266428Y-108107142D02*
X130123571Y-108107142D01*
X127623571Y-107178571D02*
X127909285Y-107178571D01*
X128052142Y-107250000D01*
X128123571Y-107321428D01*
X128266428Y-107535714D01*
X128337857Y-107821428D01*
X128337857Y-108392857D01*
X128266428Y-108535714D01*
X128195000Y-108607142D01*
X128052142Y-108678571D01*
X127766428Y-108678571D01*
X127623571Y-108607142D01*
X127552142Y-108535714D01*
X127480714Y-108392857D01*
X127480714Y-108035714D01*
X127552142Y-107892857D01*
X127623571Y-107821428D01*
X127766428Y-107750000D01*
X128052142Y-107750000D01*
X128195000Y-107821428D01*
X128266428Y-107892857D01*
X128337857Y-108035714D01*
X137552142Y-105428571D02*
X137552142Y-103928571D01*
X136552142Y-103928571D02*
X136266428Y-103928571D01*
X136123571Y-104000000D01*
X135980714Y-104142857D01*
X135909285Y-104428571D01*
X135909285Y-104928571D01*
X135980714Y-105214285D01*
X136123571Y-105357142D01*
X136266428Y-105428571D01*
X136552142Y-105428571D01*
X136695000Y-105357142D01*
X136837857Y-105214285D01*
X136909285Y-104928571D01*
X136909285Y-104428571D01*
X136837857Y-104142857D01*
X136695000Y-104000000D01*
X136552142Y-103928571D01*
X134480714Y-105428571D02*
X135337857Y-105428571D01*
X134909285Y-105428571D02*
X134909285Y-103928571D01*
X135052142Y-104142857D01*
X135195000Y-104285714D01*
X135337857Y-104357142D01*
X133980714Y-103928571D02*
X132980714Y-103928571D01*
X133623571Y-105428571D01*
X131266428Y-104857142D02*
X130123571Y-104857142D01*
X127552142Y-103928571D02*
X128266428Y-103928571D01*
X128337857Y-104642857D01*
X128266428Y-104571428D01*
X128123571Y-104500000D01*
X127766428Y-104500000D01*
X127623571Y-104571428D01*
X127552142Y-104642857D01*
X127480714Y-104785714D01*
X127480714Y-105142857D01*
X127552142Y-105285714D01*
X127623571Y-105357142D01*
X127766428Y-105428571D01*
X128123571Y-105428571D01*
X128266428Y-105357142D01*
X128337857Y-105285714D01*
X137552142Y-101678571D02*
X137552142Y-100178571D01*
X136552142Y-100178571D02*
X136266428Y-100178571D01*
X136123571Y-100250000D01*
X135980714Y-100392857D01*
X135909285Y-100678571D01*
X135909285Y-101178571D01*
X135980714Y-101464285D01*
X136123571Y-101607142D01*
X136266428Y-101678571D01*
X136552142Y-101678571D01*
X136695000Y-101607142D01*
X136837857Y-101464285D01*
X136909285Y-101178571D01*
X136909285Y-100678571D01*
X136837857Y-100392857D01*
X136695000Y-100250000D01*
X136552142Y-100178571D01*
X134480714Y-101678571D02*
X135337857Y-101678571D01*
X134909285Y-101678571D02*
X134909285Y-100178571D01*
X135052142Y-100392857D01*
X135195000Y-100535714D01*
X135337857Y-100607142D01*
X133195000Y-100178571D02*
X133480714Y-100178571D01*
X133623571Y-100250000D01*
X133695000Y-100321428D01*
X133837857Y-100535714D01*
X133909285Y-100821428D01*
X133909285Y-101392857D01*
X133837857Y-101535714D01*
X133766428Y-101607142D01*
X133623571Y-101678571D01*
X133337857Y-101678571D01*
X133195000Y-101607142D01*
X133123571Y-101535714D01*
X133052142Y-101392857D01*
X133052142Y-101035714D01*
X133123571Y-100892857D01*
X133195000Y-100821428D01*
X133337857Y-100750000D01*
X133623571Y-100750000D01*
X133766428Y-100821428D01*
X133837857Y-100892857D01*
X133909285Y-101035714D01*
X131266428Y-101107142D02*
X130123571Y-101107142D01*
X127623571Y-100678571D02*
X127623571Y-101678571D01*
X127980714Y-100107142D02*
X128337857Y-101178571D01*
X127409285Y-101178571D01*
X137552142Y-98428571D02*
X137552142Y-96928571D01*
X136552142Y-96928571D02*
X136266428Y-96928571D01*
X136123571Y-97000000D01*
X135980714Y-97142857D01*
X135909285Y-97428571D01*
X135909285Y-97928571D01*
X135980714Y-98214285D01*
X136123571Y-98357142D01*
X136266428Y-98428571D01*
X136552142Y-98428571D01*
X136695000Y-98357142D01*
X136837857Y-98214285D01*
X136909285Y-97928571D01*
X136909285Y-97428571D01*
X136837857Y-97142857D01*
X136695000Y-97000000D01*
X136552142Y-96928571D01*
X134480714Y-98428571D02*
X135337857Y-98428571D01*
X134909285Y-98428571D02*
X134909285Y-96928571D01*
X135052142Y-97142857D01*
X135195000Y-97285714D01*
X135337857Y-97357142D01*
X133123571Y-96928571D02*
X133837857Y-96928571D01*
X133909285Y-97642857D01*
X133837857Y-97571428D01*
X133695000Y-97500000D01*
X133337857Y-97500000D01*
X133195000Y-97571428D01*
X133123571Y-97642857D01*
X133052142Y-97785714D01*
X133052142Y-98142857D01*
X133123571Y-98285714D01*
X133195000Y-98357142D01*
X133337857Y-98428571D01*
X133695000Y-98428571D01*
X133837857Y-98357142D01*
X133909285Y-98285714D01*
X131266428Y-97857142D02*
X130123571Y-97857142D01*
X128409285Y-96928571D02*
X127480714Y-96928571D01*
X127980714Y-97500000D01*
X127766428Y-97500000D01*
X127623571Y-97571428D01*
X127552142Y-97642857D01*
X127480714Y-97785714D01*
X127480714Y-98142857D01*
X127552142Y-98285714D01*
X127623571Y-98357142D01*
X127766428Y-98428571D01*
X128195000Y-98428571D01*
X128337857Y-98357142D01*
X128409285Y-98285714D01*
X137802142Y-94928571D02*
X137802142Y-93428571D01*
X136802142Y-93428571D02*
X136516428Y-93428571D01*
X136373571Y-93500000D01*
X136230714Y-93642857D01*
X136159285Y-93928571D01*
X136159285Y-94428571D01*
X136230714Y-94714285D01*
X136373571Y-94857142D01*
X136516428Y-94928571D01*
X136802142Y-94928571D01*
X136945000Y-94857142D01*
X137087857Y-94714285D01*
X137159285Y-94428571D01*
X137159285Y-93928571D01*
X137087857Y-93642857D01*
X136945000Y-93500000D01*
X136802142Y-93428571D01*
X134730714Y-94928571D02*
X135587857Y-94928571D01*
X135159285Y-94928571D02*
X135159285Y-93428571D01*
X135302142Y-93642857D01*
X135445000Y-93785714D01*
X135587857Y-93857142D01*
X133445000Y-93928571D02*
X133445000Y-94928571D01*
X133802142Y-93357142D02*
X134159285Y-94428571D01*
X133230714Y-94428571D01*
X131516428Y-94357142D02*
X130373571Y-94357142D01*
X128587857Y-93571428D02*
X128516428Y-93500000D01*
X128373571Y-93428571D01*
X128016428Y-93428571D01*
X127873571Y-93500000D01*
X127802142Y-93571428D01*
X127730714Y-93714285D01*
X127730714Y-93857142D01*
X127802142Y-94071428D01*
X128659285Y-94928571D01*
X127730714Y-94928571D01*
X137802142Y-91178571D02*
X137802142Y-89678571D01*
X136802142Y-89678571D02*
X136516428Y-89678571D01*
X136373571Y-89750000D01*
X136230714Y-89892857D01*
X136159285Y-90178571D01*
X136159285Y-90678571D01*
X136230714Y-90964285D01*
X136373571Y-91107142D01*
X136516428Y-91178571D01*
X136802142Y-91178571D01*
X136945000Y-91107142D01*
X137087857Y-90964285D01*
X137159285Y-90678571D01*
X137159285Y-90178571D01*
X137087857Y-89892857D01*
X136945000Y-89750000D01*
X136802142Y-89678571D01*
X134730714Y-91178571D02*
X135587857Y-91178571D01*
X135159285Y-91178571D02*
X135159285Y-89678571D01*
X135302142Y-89892857D01*
X135445000Y-90035714D01*
X135587857Y-90107142D01*
X134230714Y-89678571D02*
X133302142Y-89678571D01*
X133802142Y-90250000D01*
X133587857Y-90250000D01*
X133445000Y-90321428D01*
X133373571Y-90392857D01*
X133302142Y-90535714D01*
X133302142Y-90892857D01*
X133373571Y-91035714D01*
X133445000Y-91107142D01*
X133587857Y-91178571D01*
X134016428Y-91178571D01*
X134159285Y-91107142D01*
X134230714Y-91035714D01*
X131516428Y-90607142D02*
X130373571Y-90607142D01*
X127730714Y-91178571D02*
X128587857Y-91178571D01*
X128159285Y-91178571D02*
X128159285Y-89678571D01*
X128302142Y-89892857D01*
X128445000Y-90035714D01*
X128587857Y-90107142D01*
X137802142Y-87928571D02*
X137802142Y-86428571D01*
X136802142Y-86428571D02*
X136516428Y-86428571D01*
X136373571Y-86500000D01*
X136230714Y-86642857D01*
X136159285Y-86928571D01*
X136159285Y-87428571D01*
X136230714Y-87714285D01*
X136373571Y-87857142D01*
X136516428Y-87928571D01*
X136802142Y-87928571D01*
X136945000Y-87857142D01*
X137087857Y-87714285D01*
X137159285Y-87428571D01*
X137159285Y-86928571D01*
X137087857Y-86642857D01*
X136945000Y-86500000D01*
X136802142Y-86428571D01*
X134730714Y-87928571D02*
X135587857Y-87928571D01*
X135159285Y-87928571D02*
X135159285Y-86428571D01*
X135302142Y-86642857D01*
X135445000Y-86785714D01*
X135587857Y-86857142D01*
X134159285Y-86571428D02*
X134087857Y-86500000D01*
X133945000Y-86428571D01*
X133587857Y-86428571D01*
X133445000Y-86500000D01*
X133373571Y-86571428D01*
X133302142Y-86714285D01*
X133302142Y-86857142D01*
X133373571Y-87071428D01*
X134230714Y-87928571D01*
X133302142Y-87928571D01*
X131516428Y-87357142D02*
X130373571Y-87357142D01*
X128230714Y-86428571D02*
X128087857Y-86428571D01*
X127945000Y-86500000D01*
X127873571Y-86571428D01*
X127802142Y-86714285D01*
X127730714Y-87000000D01*
X127730714Y-87357142D01*
X127802142Y-87642857D01*
X127873571Y-87785714D01*
X127945000Y-87857142D01*
X128087857Y-87928571D01*
X128230714Y-87928571D01*
X128373571Y-87857142D01*
X128445000Y-87785714D01*
X128516428Y-87642857D01*
X128587857Y-87357142D01*
X128587857Y-87000000D01*
X128516428Y-86714285D01*
X128445000Y-86571428D01*
X128373571Y-86500000D01*
X128230714Y-86428571D01*
X150892857Y-83678571D02*
X150892857Y-82178571D01*
X150321428Y-82178571D01*
X150178571Y-82250000D01*
X150107142Y-82321428D01*
X150035714Y-82464285D01*
X150035714Y-82678571D01*
X150107142Y-82821428D01*
X150178571Y-82892857D01*
X150321428Y-82964285D01*
X150892857Y-82964285D01*
X149535714Y-82178571D02*
X149178571Y-83678571D01*
X148892857Y-82607142D01*
X148607142Y-83678571D01*
X148250000Y-82178571D01*
X147678571Y-83678571D02*
X147678571Y-82178571D01*
X147178571Y-83250000D01*
X146678571Y-82178571D01*
X146678571Y-83678571D01*
X144535714Y-82178571D02*
X144250000Y-82178571D01*
X144107142Y-82250000D01*
X143964285Y-82392857D01*
X143892857Y-82678571D01*
X143892857Y-83178571D01*
X143964285Y-83464285D01*
X144107142Y-83607142D01*
X144250000Y-83678571D01*
X144535714Y-83678571D01*
X144678571Y-83607142D01*
X144821428Y-83464285D01*
X144892857Y-83178571D01*
X144892857Y-82678571D01*
X144821428Y-82392857D01*
X144678571Y-82250000D01*
X144535714Y-82178571D01*
X142607142Y-82678571D02*
X142607142Y-83678571D01*
X143250000Y-82678571D02*
X143250000Y-83464285D01*
X143178571Y-83607142D01*
X143035714Y-83678571D01*
X142821428Y-83678571D01*
X142678571Y-83607142D01*
X142607142Y-83535714D01*
X142107142Y-82678571D02*
X141535714Y-82678571D01*
X141892857Y-82178571D02*
X141892857Y-83464285D01*
X141821428Y-83607142D01*
X141678571Y-83678571D01*
X141535714Y-83678571D01*
X141035714Y-82678571D02*
X141035714Y-84178571D01*
X141035714Y-82750000D02*
X140892857Y-82678571D01*
X140607142Y-82678571D01*
X140464285Y-82750000D01*
X140392857Y-82821428D01*
X140321428Y-82964285D01*
X140321428Y-83392857D01*
X140392857Y-83535714D01*
X140464285Y-83607142D01*
X140607142Y-83678571D01*
X140892857Y-83678571D01*
X141035714Y-83607142D01*
X139035714Y-82678571D02*
X139035714Y-83678571D01*
X139678571Y-82678571D02*
X139678571Y-83464285D01*
X139607142Y-83607142D01*
X139464285Y-83678571D01*
X139250000Y-83678571D01*
X139107142Y-83607142D01*
X139035714Y-83535714D01*
X138535714Y-82678571D02*
X137964285Y-82678571D01*
X138321428Y-82178571D02*
X138321428Y-83464285D01*
X138250000Y-83607142D01*
X138107142Y-83678571D01*
X137964285Y-83678571D01*
X137535714Y-83607142D02*
X137392857Y-83678571D01*
X137107142Y-83678571D01*
X136964285Y-83607142D01*
X136892857Y-83464285D01*
X136892857Y-83392857D01*
X136964285Y-83250000D01*
X137107142Y-83178571D01*
X137321428Y-83178571D01*
X137464285Y-83107142D01*
X137535714Y-82964285D01*
X137535714Y-82892857D01*
X137464285Y-82750000D01*
X137321428Y-82678571D01*
X137107142Y-82678571D01*
X136964285Y-82750000D01*
X135178571Y-82321428D02*
X135107142Y-82250000D01*
X134964285Y-82178571D01*
X134607142Y-82178571D01*
X134464285Y-82250000D01*
X134392857Y-82321428D01*
X134321428Y-82464285D01*
X134321428Y-82607142D01*
X134392857Y-82821428D01*
X135250000Y-83678571D01*
X134321428Y-83678571D01*
X133750000Y-83250000D02*
X133035714Y-83250000D01*
X133892857Y-83678571D02*
X133392857Y-82178571D01*
X132892857Y-83678571D01*
X131250000Y-83678571D02*
X131250000Y-82178571D01*
X130750000Y-83250000D01*
X130250000Y-82178571D01*
X130250000Y-83678571D01*
X129607142Y-83250000D02*
X128892857Y-83250000D01*
X129750000Y-83678571D02*
X129250000Y-82178571D01*
X128750000Y-83678571D01*
X128392857Y-82178571D02*
X127392857Y-83678571D01*
X127392857Y-82178571D02*
X128392857Y-83678571D01*
X125107142Y-83607142D02*
X125250000Y-83678571D01*
X125535714Y-83678571D01*
X125678571Y-83607142D01*
X125750000Y-83464285D01*
X125750000Y-82892857D01*
X125678571Y-82750000D01*
X125535714Y-82678571D01*
X125250000Y-82678571D01*
X125107142Y-82750000D01*
X125035714Y-82892857D01*
X125035714Y-83035714D01*
X125750000Y-83178571D01*
X123750000Y-83678571D02*
X123750000Y-82892857D01*
X123821428Y-82750000D01*
X123964285Y-82678571D01*
X124250000Y-82678571D01*
X124392857Y-82750000D01*
X123750000Y-83607142D02*
X123892857Y-83678571D01*
X124250000Y-83678571D01*
X124392857Y-83607142D01*
X124464285Y-83464285D01*
X124464285Y-83321428D01*
X124392857Y-83178571D01*
X124250000Y-83107142D01*
X123892857Y-83107142D01*
X123750000Y-83035714D01*
X122392857Y-83607142D02*
X122535714Y-83678571D01*
X122821428Y-83678571D01*
X122964285Y-83607142D01*
X123035714Y-83535714D01*
X123107142Y-83392857D01*
X123107142Y-82964285D01*
X123035714Y-82821428D01*
X122964285Y-82750000D01*
X122821428Y-82678571D01*
X122535714Y-82678571D01*
X122392857Y-82750000D01*
X121750000Y-83678571D02*
X121750000Y-82178571D01*
X121107142Y-83678571D02*
X121107142Y-82892857D01*
X121178571Y-82750000D01*
X121321428Y-82678571D01*
X121535714Y-82678571D01*
X121678571Y-82750000D01*
X121750000Y-82821428D01*
D11*
X125292857Y-127592857D02*
X126207142Y-127592857D01*
X131928571Y-123842857D02*
X131014285Y-123842857D01*
X131471428Y-124338095D02*
X131471428Y-123347619D01*
X129871428Y-123038095D02*
X130442857Y-123038095D01*
X130500000Y-123657142D01*
X130442857Y-123595238D01*
X130328571Y-123533333D01*
X130042857Y-123533333D01*
X129928571Y-123595238D01*
X129871428Y-123657142D01*
X129814285Y-123780952D01*
X129814285Y-124090476D01*
X129871428Y-124214285D01*
X129928571Y-124276190D01*
X130042857Y-124338095D01*
X130328571Y-124338095D01*
X130442857Y-124276190D01*
X130500000Y-124214285D01*
X129300000Y-123842857D02*
X128385714Y-123842857D01*
X127871428Y-123161904D02*
X127814285Y-123100000D01*
X127700000Y-123038095D01*
X127414285Y-123038095D01*
X127300000Y-123100000D01*
X127242857Y-123161904D01*
X127185714Y-123285714D01*
X127185714Y-123409523D01*
X127242857Y-123595238D01*
X127928571Y-124338095D01*
X127185714Y-124338095D01*
X126157142Y-123471428D02*
X126157142Y-124338095D01*
X126442857Y-122976190D02*
X126728571Y-123904761D01*
X125985714Y-123904761D01*
X125700000Y-123038095D02*
X125300000Y-124338095D01*
X124900000Y-123038095D01*
M02*
