M48
;DRILL file {KiCad 5.0.1} date Sun 10 Feb 2019 02:23:16 PM EST
;FORMAT={-:-/ absolute / inch / decimal}
FMAT,2
INCH,TZ
T1C0.0157
T2C0.0256
T3C0.0276
T4C0.0394
T5C0.0472
T6C0.0630
%
G90
G05
M72
T1
X4.7736Y-2.687
X4.7736Y-2.7362
X4.7736Y-2.7362
X4.7736Y-2.7362
X4.7736Y-2.7854
X4.7736Y-4.6555
X4.7736Y-4.7047
X4.7736Y-4.7047
X4.7736Y-4.7047
X4.7736Y-4.7539
X4.813Y-2.687
X4.813Y-2.7362
X4.813Y-2.7854
X4.813Y-4.6555
X4.813Y-4.7047
X4.813Y-4.7539
X5.2362Y-1.2992
X5.2362Y-1.437
X5.2362Y-1.6142
X5.2362Y-1.811
X5.2362Y-2.0079
X5.2362Y-2.2047
X5.2362Y-2.4016
X5.2362Y-2.5984
X5.2362Y-3.2677
X5.2362Y-3.4055
X5.2362Y-3.5827
X5.2362Y-3.7795
X5.2362Y-3.9764
X5.2362Y-4.1732
X5.2362Y-4.3701
X5.2362Y-4.5669
X5.2913Y-1.437
X5.2913Y-1.4764
X5.2913Y-1.5157
X5.2913Y-1.6142
X5.2913Y-1.6535
X5.2913Y-1.6929
X5.2913Y-1.811
X5.2913Y-1.8504
X5.2913Y-1.8898
X5.2913Y-2.0079
X5.2913Y-2.0472
X5.2913Y-2.0866
X5.2913Y-2.2047
X5.2913Y-2.2441
X5.2913Y-2.2835
X5.2913Y-2.4016
X5.2913Y-2.4409
X5.2913Y-2.4803
X5.2913Y-3.4055
X5.2913Y-3.4449
X5.2913Y-3.4843
X5.2913Y-3.5827
X5.2913Y-3.622
X5.2913Y-3.6614
X5.2913Y-3.7795
X5.2913Y-3.8189
X5.2913Y-3.8583
X5.2913Y-3.9764
X5.2913Y-4.0157
X5.2913Y-4.0551
X5.2913Y-4.1732
X5.2913Y-4.2126
X5.2913Y-4.252
X5.2913Y-4.3701
X5.2913Y-4.4094
X5.2913Y-4.4488
X5.2953Y-1.2992
X5.2953Y-1.2992
X5.2953Y-1.3386
X5.2953Y-2.5984
X5.2953Y-2.6378
X5.2953Y-2.6772
X5.2953Y-3.2677
X5.2953Y-3.2677
X5.2953Y-3.3071
X5.2953Y-4.5669
X5.2953Y-4.6063
X5.2953Y-4.6457
X5.4724Y-1.4173
X5.4724Y-1.5945
X5.4724Y-1.7913
X5.4724Y-1.9882
X5.4724Y-2.185
X5.4724Y-2.3819
X5.4724Y-2.5787
X5.4724Y-3.3858
X5.4724Y-3.563
X5.4724Y-3.7598
X5.4724Y-3.9567
X5.4724Y-4.1535
X5.4724Y-4.3504
X5.4724Y-4.5472
X5.5118Y-2.8346
X5.5118Y-2.874
X5.5118Y-4.8031
X5.5118Y-4.8425
X5.5512Y-2.8346
X5.5512Y-2.874
X5.5512Y-4.8031
X5.5512Y-4.8425
X5.7087Y-2.6181
X5.7087Y-4.5866
X5.748Y-1.8406
X5.748Y-2.1063
X5.748Y-2.3819
X5.748Y-2.9232
X5.748Y-3.1102
X5.748Y-3.8091
X5.748Y-4.0748
X5.748Y-4.3504
X5.748Y-4.8917
X5.748Y-5.0787
X5.7874Y-2.7854
X5.7874Y-4.7539
X5.7899Y-2.8839
X5.7899Y-4.8524
X5.8071Y-1.9882
X5.8071Y-3.9567
X5.8366Y-2.5295
X5.8366Y-4.498
X5.8661Y-2.2736
X5.8661Y-4.2421
X5.8858Y-2.0177
X5.8858Y-2.5197
X5.8858Y-2.6299
X5.8858Y-2.6969
X5.8858Y-2.7638
X5.8858Y-3.9862
X5.8858Y-4.4882
X5.8858Y-4.5984
X5.8858Y-4.6654
X5.8858Y-4.7323
X5.8957Y-2.2146
X5.8957Y-4.1831
X5.9055Y-3.0315
X5.9055Y-5.
X5.9252Y-2.0571
X5.9252Y-4.0256
X5.935Y-1.8209
X5.935Y-2.874
X5.935Y-3.7894
X5.935Y-4.8425
X5.9449Y-1.9094
X5.9449Y-1.9488
X5.9449Y-2.3622
X5.9449Y-2.4114
X5.9449Y-3.878
X5.9449Y-3.9173
X5.9449Y-4.3307
X5.9449Y-4.3799
X5.9547Y-3.0315
X5.9547Y-5.
X5.9646Y-2.0591
X5.9646Y-4.0276
X5.9843Y-1.9094
X5.9843Y-1.9488
X5.9843Y-2.4409
X5.9843Y-3.878
X5.9843Y-3.9173
X5.9843Y-4.4094
X6.0236Y-2.9409
X6.0236Y-4.9094
X6.0335Y-2.4902
X6.0335Y-4.4587
X6.0531Y-2.9409
X6.0531Y-4.9094
X6.0827Y-1.8504
X6.0827Y-3.8189
X6.1122Y-2.0079
X6.1122Y-3.9764
X6.122Y-2.6378
X6.122Y-4.6063
X6.1417Y-2.0374
X6.1417Y-4.0059
X6.1516Y-2.4311
X6.1516Y-2.4705
X6.1516Y-2.5098
X6.1516Y-4.3996
X6.1516Y-4.439
X6.1516Y-4.4783
X6.1614Y-2.9134
X6.1614Y-4.8819
X6.1713Y-2.0669
X6.1713Y-4.0354
X6.1811Y-2.5984
X6.1811Y-4.5669
X6.2008Y-2.9134
X6.2008Y-4.8819
X6.2106Y-1.8504
X6.2106Y-1.8996
X6.2106Y-3.8189
X6.2106Y-3.8681
X6.2598Y-1.8012
X6.2598Y-3.7697
X6.2894Y-2.372
X6.2894Y-2.4114
X6.2894Y-3.002
X6.2894Y-4.3406
X6.2894Y-4.3799
X6.2894Y-4.9705
X6.3189Y-3.0906
X6.3189Y-3.124
X6.3189Y-5.0591
X6.3189Y-5.0925
X6.3287Y-2.1063
X6.3287Y-2.372
X6.3287Y-2.4114
X6.3287Y-4.0748
X6.3287Y-4.3406
X6.3287Y-4.3799
X6.3484Y-1.9094
X6.3484Y-3.878
X6.3681Y-2.372
X6.3681Y-2.4114
X6.3681Y-4.3406
X6.3681Y-4.3799
X6.3878Y-1.8799
X6.3878Y-3.8484
X6.4173Y-2.4705
X6.4173Y-4.439
X6.4764Y-1.5453
X6.4764Y-3.5138
X6.4961Y-2.5098
X6.4961Y-4.4783
X6.5256Y-2.4409
X6.5256Y-2.9232
X6.5256Y-4.4094
X6.5256Y-4.8917
X6.5354Y-2.8346
X6.5354Y-4.8031
X6.565Y-2.9232
X6.565Y-4.8917
X6.6043Y-2.9232
X6.6043Y-4.8917
X6.6142Y-1.5354
X6.6142Y-3.5039
X6.6831Y-1.5354
X6.6831Y-3.5039
X6.7028Y-2.5098
X6.7028Y-4.4783
X6.7323Y-1.565
X6.7323Y-3.5335
X6.7421Y-2.4705
X6.7421Y-2.5098
X6.7421Y-4.439
X6.7421Y-4.4783
X6.7815Y-1.8504
X6.7815Y-1.8898
X6.7815Y-2.4705
X6.7815Y-2.5098
X6.7815Y-3.8189
X6.7815Y-3.8583
X6.7815Y-4.439
X6.7815Y-4.4783
X6.8209Y-1.8898
X6.8209Y-1.8898
X6.8209Y-1.8898
X6.8209Y-2.4705
X6.8209Y-3.8583
X6.8209Y-3.8583
X6.8209Y-3.8583
X6.8209Y-4.439
X6.9783Y-1.5551
X6.9783Y-3.5236
X7.1654Y-2.0472
X7.1654Y-2.0866
X7.1654Y-2.126
X7.1654Y-2.1654
X7.1654Y-2.2047
X7.1654Y-4.0157
X7.1654Y-4.0551
X7.1654Y-4.0945
X7.1654Y-4.1339
X7.1654Y-4.1732
X7.2047Y-2.0472
X7.2047Y-2.0866
X7.2047Y-2.126
X7.2047Y-2.1654
X7.2047Y-2.2047
X7.2047Y-4.0157
X7.2047Y-4.0551
X7.2047Y-4.0945
X7.2047Y-4.1339
X7.2047Y-4.1732
X7.2343Y-1.5551
X7.2343Y-3.5236
X7.2441Y-2.0472
X7.2441Y-2.0866
X7.2441Y-2.126
X7.2441Y-2.1654
X7.2441Y-2.2047
X7.2441Y-4.0157
X7.2441Y-4.0551
X7.2441Y-4.0945
X7.2441Y-4.1339
X7.2441Y-4.1732
X7.2835Y-2.0472
X7.2835Y-2.0866
X7.2835Y-2.126
X7.2835Y-2.1654
X7.2835Y-2.2047
X7.2835Y-4.0157
X7.2835Y-4.0551
X7.2835Y-4.0945
X7.2835Y-4.1339
X7.2835Y-4.1732
X7.2933Y-1.7126
X7.2933Y-3.6811
X7.3228Y-2.0472
X7.3228Y-2.0866
X7.3228Y-2.126
X7.3228Y-2.1654
X7.3228Y-2.2047
X7.3228Y-4.0157
X7.3228Y-4.0551
X7.3228Y-4.0945
X7.3228Y-4.1339
X7.3228Y-4.1732
X7.3425Y-1.4665
X7.3425Y-3.1102
X7.3425Y-3.435
X7.3425Y-5.0787
X7.372Y-1.624
X7.372Y-3.5925
X7.4213Y-2.4114
X7.4213Y-4.3799
X7.4508Y-2.687
X7.4508Y-4.6555
X7.4606Y-1.7126
X7.4606Y-2.4114
X7.4606Y-3.6811
X7.4606Y-4.3799
X7.4803Y-1.8799
X7.4803Y-3.8484
X7.4902Y-2.6378
X7.4902Y-2.687
X7.4902Y-4.6063
X7.4902Y-4.6555
X7.5Y-2.4114
X7.5Y-4.3799
X7.5394Y-1.624
X7.5394Y-1.7224
X7.5394Y-1.8799
X7.5394Y-1.9193
X7.5394Y-2.5984
X7.5394Y-2.6378
X7.5394Y-2.6772
X7.5394Y-3.5925
X7.5394Y-3.6909
X7.5394Y-3.8484
X7.5394Y-3.8878
X7.5394Y-4.5669
X7.5394Y-4.6063
X7.5394Y-4.6457
T4
X5.9843Y-4.7441
X6.0843Y-4.7441
X6.1843Y-4.7441
X6.2843Y-4.7441
X6.3843Y-4.7441
X6.4843Y-4.7441
X6.5843Y-4.7441
X6.6843Y-4.7441
X6.7843Y-4.7441
X6.8843Y-4.7441
X6.9843Y-4.7441
X7.0843Y-4.7441
X7.1843Y-4.7441
X7.2843Y-4.7441
X7.3843Y-4.7441
X7.4843Y-4.7441
X5.9843Y-1.3976
X6.0843Y-1.3976
X6.1843Y-1.3976
X6.2843Y-1.3976
X6.3843Y-1.3976
X6.4843Y-1.3976
X6.5843Y-1.3976
X6.6843Y-1.3976
X6.7843Y-1.3976
X6.8843Y-1.3976
X6.9843Y-1.3976
X7.0843Y-1.3976
X7.1843Y-1.3976
X7.2843Y-1.3976
X7.3843Y-1.3976
X7.4843Y-1.3976
X5.9843Y-2.7756
X6.0843Y-2.7756
X6.1843Y-2.7756
X6.2843Y-2.7756
X6.3843Y-2.7756
X6.4843Y-2.7756
X6.5843Y-2.7756
X6.6843Y-2.7756
X6.7843Y-2.7756
X6.8843Y-2.7756
X6.9843Y-2.7756
X7.0843Y-2.7756
X7.1843Y-2.7756
X7.2843Y-2.7756
X7.3843Y-2.7756
X7.4843Y-2.7756
X6.6732Y-1.8799
X6.6732Y-1.9799
X6.6732Y-2.0799
X6.6732Y-2.1799
X6.6732Y-2.2799
X6.6732Y-2.3799
X6.6732Y-3.8484
X6.6732Y-3.9484
X6.6732Y-4.0484
X6.6732Y-4.1484
X6.6732Y-4.2484
X6.6732Y-4.3484
X5.9843Y-3.3661
X6.0843Y-3.3661
X6.1843Y-3.3661
X6.2843Y-3.3661
X6.3843Y-3.3661
X6.4843Y-3.3661
X6.5843Y-3.3661
X6.6843Y-3.3661
X6.7843Y-3.3661
X6.8843Y-3.3661
X6.9843Y-3.3661
X7.0843Y-3.3661
X7.1843Y-3.3661
X7.2843Y-3.3661
X7.3843Y-3.3661
X7.4843Y-3.3661
X5.9843Y-2.126
X6.0843Y-2.126
X5.9843Y-4.0945
X6.0843Y-4.0945
T5
X4.8583Y-4.8797
X4.8583Y-5.0175
X4.8583Y-2.9112
X4.8583Y-3.049
T6
X4.9016Y-3.4252
X4.9016Y-3.563
X4.9016Y-3.7008
X4.9016Y-3.8386
X4.9016Y-3.9764
X4.9016Y-4.1142
X4.9016Y-4.252
X4.9016Y-4.3898
X4.9016Y-4.5276
X4.9016Y-1.4567
X4.9016Y-1.5945
X4.9016Y-1.7323
X4.9016Y-1.8701
X4.9016Y-2.0079
X4.9016Y-2.1457
X4.9016Y-2.2835
X4.9016Y-2.4213
X4.9016Y-2.5591
T2
X6.0236Y-3.0045G85X6.0236Y-2.9888
G05
X6.2205Y-3.0045G85X6.2205Y-2.9888
G05
X6.0236Y-4.973G85X6.0236Y-4.9573
G05
X6.2205Y-4.973G85X6.2205Y-4.9573
G05
T3
X5.9843Y-3.1246G85X5.9843Y-3.1049
G05
X6.2598Y-3.1246G85X6.2598Y-3.1049
G05
X5.9843Y-5.0931G85X5.9843Y-5.0734
G05
X6.2598Y-5.0931G85X6.2598Y-5.0734
G05
T0
M30
